<?xml version="1.0" encoding="utf-8"?>
<!-- Generator: Adobe Illustrator 26.1.0, SVG Export Plug-In . SVG Version: 6.00 Build 0)  -->
<svg version="1.1" xmlns="http://www.w3.org/2000/svg" xmlns:xlink="http://www.w3.org/1999/xlink" x="0px" y="0px"
	 viewBox="0 0 750 500" style="enable-background:new 0 0 750 500;" xml:space="preserve">
<style type="text/css">
	.st0{opacity:0.5;fill:#9DCEBE;}
	.st1{fill:#221E1F;}
	.st2{fill:#F3B2A7;}
	.st3{opacity:0.24;fill:#F3B2A7;}
	.st4{fill:#A97B66;}
	.st5{fill:#FFF9E2;}
	.st6{fill:#006E58;}
	.st7{fill:#04826A;}
	.st8{fill:#A1B84E;}
	.st9{fill:#DDD4B8;}
	.st10{opacity:0.48;fill:#F3B2A7;}
	.st11{opacity:0.45;fill:#A97B66;}
	.st12{fill:#667EA2;}
	.st13{fill:#FA9900;}
	.st14{fill:#EA9883;}
	.st15{opacity:0.48;fill:#FA9900;}
	.st16{fill:#BD262B;}
	.st17{opacity:0.68;fill:#F3B2A7;}
	.st18{fill:#024386;}
	.st19{opacity:0.58;fill:#024386;}
	.st20{fill:none;stroke:#FFF9E2;stroke-width:1.9864;stroke-linecap:round;stroke-miterlimit:10;}
	.st21{opacity:0.54;fill:#006E58;}
	.st22{opacity:0.6;fill:#F3B2A7;}
	.st23{fill:#EB143F;}
	.st24{opacity:0.17;fill:#B52346;}
	.st25{opacity:0.88;fill:#B52346;}
</style>
<g id="BACKGROUND">
</g>
<g id="OBJECTS">
	<path class="st0" d="M193.35,442.18c33.19,2.63,67.78-0.56,102.02-1.04c87.78-1.23,175.66-2.85,263.38,1.73
		c35.23,1.84,72.73,0.1,103.43-19.29c33.48-21.15,52.5-60.03,58.73-99.14c6.51-40.86,5.75-91.86-9.35-130.53
		C658.18,57.3,478.83,68.81,372.79,128.53c-22.31,12.57-45.45,25.7-70.91,30.49c-26.5,4.98-46.93-7.73-70.69-17.43
		c-33.23-13.57-71.74-14.57-105.02-1.14C18.53,183.87,13.41,334.26,95.19,404.58C124.99,430.2,158.39,439.42,193.35,442.18z"/>
	<g>
		<path class="st1" d="M143.78,155.92c0,0,4.96,6.33,5.26,13.28c0.3,6.95-2.08,3.35-2.08,3.35s2.25,13.04,0,12.17
			c-2.25-0.87-3.83-2.11-3.83-2.11s-0.71,8.07-1.48,7.2c-0.77-0.87-2.75,0.62-2.75,0.62s1.63,8.32-2.09,8.19
			c-3.72-0.12-11.66-3.72-11.66-3.72l-9.92-0.79l-6.66-0.5c0,0-9.31,5.52-8.73,0.5c0.82-7.03-1.81-1.82-2.34-4.8
			c-0.53-2.98,0.29-6.27,0.29-6.27s-3.09,4.77-4.25,1.49c-1.38-3.91,3.96-12.1,3.96-12.1s-3.36,6.66-5.08,3.93
			c-1.72-2.73,0-6.95,2.13-16.47l6.78-12.73l32.93-2.05L143.78,155.92z"/>
		<path class="st1" d="M141.17,154.57c0,0,4.44,6.08,4.7,12.76c0.26,6.68-1.86,3.22-1.86,3.22s2.01,12.52,0,11.68
			c-2.01-0.83-3.43-2.03-3.43-2.03s-0.63,7.75-1.32,6.92c-0.69-0.83-2.46,0.6-2.46,0.6s1.46,7.99-1.87,7.87
			c-3.33-0.12-10.42-3.58-10.42-3.58l-8.87-0.76l-5.95-0.48c0,0-8.32,5.31-7.8,0.48c0.73-6.75-1.62-1.75-2.09-4.61
			c-0.47-2.86,0.26-6.02,0.26-6.02s-2.76,4.59-3.8,1.43c-1.24-3.76,3.54-11.62,3.54-11.62s-3,6.4-4.54,3.78
			c-1.54-2.62,0-6.67,1.91-15.82l6.06-12.23l29.44-1.97L141.17,154.57z"/>
		<path class="st2" d="M133.55,177.64c0,0,1.16,24.09,1.49,24.42c0.33,0.33,16.39-0.66,29.3,7.24l-2.23,122.04
			c0,0-25.55,10.43-46.63,10.43c-10.94,0-42.51-10.43-42.51-10.43s-14.79-110.04,0.75-122.04c8.52-6.58,30.87-7.08,30.87-7.08
			l1.82-24.59H133.55z"/>
		<path class="st2" d="M97.62,157.35c1.42-14.09,9.31-26.1,25.93-24.66c25.55,2.21,23.98,44.95,10.22,58.02
			c-8.34,7.92-22.17,6.79-28.15-1.2C99.54,181.39,96.48,168.7,97.62,157.35z"/>
		<path class="st3" d="M142.3,155.63c-1.15-5.53-2.18-10.91-4.98-15.11l-13.28,6.23c0,0-2.33,10.96-1.88,16.47
			c0.99,12.26,5.56,11.89,1.8,15.36c-3.03,2.81,1.86,10.1-1.32,17.53c4.56-0.62,11.77-3.88,13.76-7.8
			C141.24,178.84,144.88,168.03,142.3,155.63z"/>
		<path class="st4" d="M149.33,319.43c0,0,12.03,11.59,15.01,32.61c2.98,21.02,1.49,69.42,0,90.01h-32.78l-16.09-68.99l-6.75,68.99
			H69.85c0,0-11.06-75.94,0-97.79s36.74-21.85,36.74-21.85L149.33,319.43z"/>
		<path class="st2" d="M204.92,205.54c0,0,3.41-8.34,3.89-15.26c0.48-6.92-0.69-8.65-0.32-14.56c0.37-5.91-1.07-15.04-0.14-15.19
			c0.93-0.15,4.32-0.35,4.91,3.91c0.6,4.26,1.57,8.64,1.57,8.64l8.15-17.77c0,0,3.14-7.02,5.78-5.53c2.69,1.53-5.33,14.94-4.3,15.66
			c1.47,1.04,6.5-7.05,6.5-7.05s5.08-8.9,7.75-7.45c2.67,1.45-7.56,15.74-7.56,15.74s-1.2,2.66,0.68,2.18
			c1.87-0.48,9.14-12.44,11.8-11.62c2.65,0.82-4.67,10.27-4.67,10.27s-4.92,4.88-2.64,5.71c2.28,0.83,9.63-7.62,11.17-6.15
			c1.54,1.47-4.6,7.69-7.19,9.73c-2.59,2.04-5.65,5.62-7.21,8.92c-1.56,3.3-3.74,7.63-7.73,8.72l-3.36,11.85L204.92,205.54z"/>
		<path class="st5" d="M133.55,202.07c0.39-0.25,17.88-0.66,30.79,7.24l-2.23,122.04c0,0-11.34,15.39-46.61,15.39
			c-22.01,0-42.53-15.39-42.53-15.39s-14.79-110.04,0.75-122.04c8.52-6.58,32.36-6.58,32.36-6.58
			C104.87,206.5,120.45,210.55,133.55,202.07z"/>
		<path class="st6" d="M228.24,199.75l-25.49-7.61l-16.22,44.53c0,0-18.53-28.66-25.16-28.98c-6.63-0.32-5.3,36.1-5.3,36.1
			l17.88,47.01c0,0,8.61,14.57,24.5,5.3C214.33,286.82,228.24,199.75,228.24,199.75z"/>
		<path class="st2" d="M83.8,334.73l2.58,8.35l4.63,4.83c0,0-8.93,11.93-17.38,14.9l-2.82-5.8c0,0-3.1-8.2-2.79-8.24
			C68.33,348.73,83.8,334.73,83.8,334.73z"/>
		<path class="st6" d="M102.1,202.01c0,0,7.28,27.54,3.31,54.02c-3.97,26.49-35.09,91.37-40.72,103.29
			c-5.63,11.92-2.65,36.42-2.65,36.42s-27.81-26.15-28.8-33.77c-0.99-7.61,3.64-34.43,17.88-47.34
			c14.24-12.91,23.23-107.95,23.23-107.95L102.1,202.01z"/>
		<polygon class="st6" points="92.66,230.43 83.8,253.11 94.02,265.36 85.13,269.59 87.94,300.3 94.02,277.62 98.56,269.9 
			99.66,257.72 		"/>
		<polygon class="st6" points="66.6,330.72 46.89,321.51 63.69,361.81 72.42,346.25 		"/>
		<path class="st6" d="M91.84,211.34l10.01-8.73c0,0-14.07-1.22-24.16,2.43c-7.24,2.62-14.5,7.37-18.31,14.05
			c-6.65,11.68-16.71,32.19-20.64,62.64c-0.47,3.61-0.48,7.26,0,10.87c1.54,11.4,7.44,37.02,30.08,65.9c0,0,14.07-10.26,20.69-19.2
			c0,0-13.24-32.94-15.23-37.58c-1.99-4.63-4.97-13.57-4.97-13.57l13.57-43.7L91.84,211.34z"/>
		<path class="st7" d="M102.1,202.01l-18.3,45.86l14.24,17.21l-9.99,5.95l-0.14,36.82c0,0,14.67-36.02,16.73-47.7
			C109.41,233.27,102.1,202.01,102.1,202.01z"/>
		<g>
			<path class="st6" d="M164.34,209.31c0,0-11.57-10.99-27.79-7.09c0,0,11.57,39.9,7.55,64.62c-3.07,18.91-3.27,96.46,2.69,109.7
				l38.73-21.52l-10.93-77L164.34,209.31z"/>
			<path class="st6" d="M156.06,243.78l0.74,1.45l4.24,8.34l-8.25,9.53l7.03,11.26l-13.87,23.53l1.85-26.19c0,0-0.23-12.77,0-13.97"
				/>
			<path class="st7" d="M136.55,202.22c0,0,18.85,25.09,25.55,45.95l-12.78,14.65l8.31,11.42c0,0-15.73,26.82-15.64,38.98
				C142,313.22,144.1,252.39,136.55,202.22z"/>
		</g>
		<polyline class="st8" points="123.9,205.46 127.84,219.49 124.99,228.14 117.67,228.14 113.98,219.65 117.78,206.25 		"/>
		<polyline class="st8" points="121.15,214.32 122.22,217.36 123.42,222.59 130.93,244 130.93,296.92 121.15,308.51 110.59,296.92 
			110.59,243.51 120.44,222.59 		"/>
		<path class="st9" d="M135.06,196.11c0,0,0.48,5.3-13.43,12.75l9.27,16.39c0,0,8.86-14.57,9.73-21.37L135.06,196.11z"/>
		<path class="st9" d="M105.02,196.6c0,0-0.48,4.8,13.43,12.25l-9.27,16.39c0,0-7.97-14.57-9.52-20.77L105.02,196.6z"/>
		<polygon class="st6" points="77.63,248.28 66.6,290.54 85.13,328.4 73.19,290.43 		"/>
		<path class="st6" d="M176.92,294.38l-9.2-50.17l20.53,54.97C188.25,299.18,179.91,297.97,176.92,294.38z"/>
		<path class="st1" d="M134.17,145.12c0,0,0.12,0.81,0.35,2.05c0.82,4.37,3.01,14.11,6.1,12.85c3.97-1.61,6.46,6.08,7.2,0.62
			s-0.12-18.89-7.2-20.93C133.55,137.67,134.17,145.12,134.17,145.12z"/>
		<path class="st2" d="M139.33,163.13c0,0-0.3-6.28,4.6-4.13c4.9,2.14,4.08,12.9-2.3,12.58"/>
		<path class="st2" d="M101.16,162.79c0,0-0.26-6.28-4.95-3.7c-4.69,2.57-2.91,13.22,3.42,12.32"/>
		<path class="st1" d="M142.3,146.46c0,0-6.06,8.61-14.31,10.64c-1.3,0.32-2.55-0.69-2.47-2.02c0.06-0.92,0.25-2.12,0.72-3.61
			c1.16-3.71-3.75,6.57-10.46,6.84l2.15-5.92c0,0-4.56,7.8-10.32,8.07l1.74-4.16c0,0-4.54,8.77-7.37,9.19
			c-4.17,0.62-3.89-4.77-3.89-4.77s-4.83,8.04-4.83,4.56s2.82-7.34,2.82-7.34s-5.36,4.79-4.56,1.71c0.8-3.08,3.52-10.06,3.52-10.06
			s-4.86,3.02-4.86,1.41c0-1.61,2.55-11.64,11.8-14.68c7.45-2.45-1.88-2.01-1.88-2.01s4.84-3.62,8.85-3.35
			c4.01,0.27,6.57-0.01,6.57-0.01s-10.59-1.59-10.59-3.07c0-1.47,11.03,1.34,11.95,1.34c0.92,0-4.98-2.15-3.64-2.95
			c1.34-0.8,8.18,2.55,11.4,3.49c3.22,0.94,12.07,1.88,13.54,4.02c1.47,2.15-2.15,1.88-2.15,1.88s8.95,3.71,9.92,9.12
			C146.35,147.01,142.3,146.46,142.3,146.46z"/>
		<path class="st10" d="M105.63,189.51c5.98,7.98,19.8,9.12,28.15,1.2c0.15-0.14,0.29-0.28,0.43-0.43c0.09,1.55-1.33,3.64-1.56,3.86
			c-7.51,7.13-17.37,7.66-23.63,1.68c-1.21-1.16-2.09-2.61-2.66-4.18c-0.4-1.1-0.81-2.26-0.81-2.26
			C105.56,189.43,105.59,189.47,105.63,189.51z"/>
		<path class="st5" d="M105.02,194.12c0,0,1.51,4.8,15.41,12.25l-11.26,16.39c0,0-7.97-14.57-9.52-20.77L105.02,194.12z"/>
		<path class="st5" d="M135.06,193.63c0,0-1.01,5.3-14.92,12.75l10.76,16.39c0,0,8.86-14.57,9.73-21.37L135.06,193.63z"/>
		<path class="st3" d="M139.33,163.13c0,0-0.3-6.28,4.6-4.13c4.9,2.14,4.08,12.9-2.3,12.58"/>
		<path class="st3" d="M214.83,173.09c0,0,2.4,4,1.78,7.17c0,0,1.68-5.59-0.84-9.22L214.83,173.09z"/>
		<path class="st11" d="M132.31,386.78c-1.04-7.08-4.26-28.29-4.26-28.29l-12.58,14.57l16.09,68.99h4.99h4.08h5.32
			c0,0-6.76-9.57-7.12-11.96v0c-0.36-2.39,1.75-7.67,7.12-6.64C150.3,424.29,136.55,415.74,132.31,386.78z"/>
		<path class="st6" d="M117.67,228.14c0,0,4.16,2.44,7.32,0H117.67z"/>
	</g>
	<g>
		<path class="st12" d="M242.63,348.21c0,0-11.24,31.35-10.43,71.76l-0.03,22.08h33.55l15.21-50.15l6.32,50.15h32.65
			c0,0,9.69-38.49,10.62-63.75c0.66-18.04-10.62-30.1-10.62-30.1H242.63z"/>
		<g>
			<path class="st2" d="M190.67,222.84c0,0-2.99-7.31-3.41-13.37c-0.42-6.06,0.61-7.58,0.28-12.76c-0.33-5.18,0.94-13.18,0.12-13.31
				c-0.82-0.13-3.78-0.3-4.31,3.43c-0.52,3.73-1.38,7.57-1.38,7.57l-7.14-15.57c0,0-2.75-6.16-5.07-4.84
				c-2.36,1.34,4.67,13.09,3.77,13.73c-1.29,0.91-5.7-6.18-5.7-6.18s-4.45-7.8-6.79-6.53c-2.34,1.27,6.63,13.79,6.63,13.79
				s1.05,2.33-0.59,1.91c-1.64-0.42-8.01-10.91-10.34-10.19c-2.33,0.72,4.09,9,4.09,9s4.31,4.28,2.31,5c-2,0.73-8.44-6.68-9.79-5.39
				c-1.35,1.29,4.03,6.74,6.31,8.53c2.27,1.79,4.95,4.93,6.32,7.82c1.37,2.89,3.28,6.69,6.77,7.64l2.95,10.39L190.67,222.84z"/>
			<path class="st3" d="M181.63,194.89c0,0-3.07,7.55-2.3,10.74l-2.43-4.73C176.89,200.9,180.33,196.75,181.63,194.89z"/>
		</g>
		<path class="st13" d="M287.78,224.85l-28.1-3.51c0,0-9.93-5.43-19.53,3.51c-9.6,8.94,0,26.15,0,26.15s0.66,31.12,0.66,47.67
			c0,16.55-15.64,57.52-2.4,60.17c0,0,28.65,0.08,30.92-0.58c2.27-0.66,7.49,4.56,18.45,0.29c10.96-4.27,31.12,4.63,37.07-0.34
			c5.96-4.97,8.98-44.54,3.35-53.04c-5.63-8.5-4.97-71.07-4.97-71.07s-11.81-14.3-21.96-12.78
			C291.13,222.87,287.78,224.85,287.78,224.85z"/>
		<path class="st13" d="M261.17,212.44c0,0-0.53-6.86,6.72-1.43c5.87,4.41,7.42,4.98,13.09,4.39s16.47-8.26,19.52-5.45
			c3.05,2.81-1.75,4.47,2.22,7.12c3.97,2.65,4.47,3.64,1.55,6.29c-3.55,3.22-15.12,9.93-27.04,8.11
			c-11.92-1.82-22.18-5.79-20.86-10.76C257.69,215.75,261.83,217.24,261.17,212.44z"/>
		<path class="st13" d="M317.86,337.75l12.28,2.84c0,0-1.64,19.21-8.1,19.63c-8.71,0.57-28.76-4.22-28.76-4.22l10.43-12.03
			L317.86,337.75z"/>
		<polygon class="st13" points="298.32,358.57 275.24,350.57 324.38,299.61 298.32,341.32 		"/>
		<path class="st13" d="M252.53,230.48l-8.92-8.27c0,0-11.41,9.59-17.37,18.2c-5.96,8.61-11.92,13.57-11.92,13.57
			s-17.09-26.03-19.2-31.77c-2.32-6.3-6.29-12.31-6.29-12.31l-15.89,6c0,0,8.28,37.08,12.91,47.67
			c4.63,10.59,12.58,35.42,29.8,33.11c17.22-2.32,40.68-29.8,40.68-29.8L252.53,230.48z"/>
		<path class="st14" d="M267.02,368.63c-0.62-1.33,1.17-2.16,5.71-4.3c0.17-0.08,0.97-1.09,1.16-1.18c0.71-0.42-5.67,2.8-6.4,1.62
			c-0.97-1.56,0.25-2.51,5.99-5.27c3.7-1.78,7.24-3.21,7.52-4.63c0.7-3.65-9.53-2-5.76-4.3c1.26-0.76,4.6-2.08,6.35-2.65
			c3.34-1.08,2.83-1.14,9.25-1.66c10.08-0.82,16.78-17.4,14.71-5.29c-0.69,4.05-1.68,8.3-4.19,12.29
			c-4.98,7.92-13.31,14.85-18.63,17.4c-0.34,0.17-0.68,0.34-1.01,0.5c-2.65,1.45-5.23,2.1-5.75,1.49c-0.8-0.94,2.35-2.88,4.83-4.03
			c0.71-0.33-8.23,3.74-9.13,2.7c-0.96-1.1,3.04-3.2,5.98-4.6C278.45,366.35,267.96,370.65,267.02,368.63z"/>
		<path class="st13" d="M298.8,236.24c-0.56-7.09,4.53-13.53,11.59-14.36c0.23-0.03,0.47-0.05,0.71-0.07
			c8.67-0.6,18.27,5.02,21.25,12.97c2.98,7.95,24.17,57.45,24.17,73.17c0,0-21.45,39.1-52.96,48.04c0,0-14.37-6.95-15.99-15.56
			c0,0,28.56-35.23,36.82-40.82C324.38,299.61,300.75,261.22,298.8,236.24z"/>
		<polygon class="st12" points="270.54,382.9 280.94,391.91 265.72,442.06 262.16,442.06 		"/>
		<path class="st13" d="M269.08,221.77l-5.34-3.95l-6.24,6.53c0,0,22.13,10.36,35.04,9.36c12.91-0.99,17.85-11.83,17.85-11.83
			l-9.1-0.54L269.08,221.77z"/>
		<g>
			<path class="st13" d="M298.32,220.35c-2.97-0.99-6.63,0.83-6.27-0.64c0.36-1.47,3.26,0.02,5.55-1.89
				c2.29-1.91,1.45-7.51,2.89-7.86c-3.05-2.81-13.86,4.86-19.52,5.45c-5.66,0.59-7.22,0.01-13.09-4.39
				c-5.23-3.93-6.41-1.44-6.66,0.25c0.4,0.01,0.79,0.3,1.12,0.98c0.9,1.87,8.21,5.58,8.21,5.58l9.51,3.24
				c-6.31,0.72-11.8-2.66-16.33-3.24c-4.52-0.58-2.84,0.34-5.86,0.07c-0.61,0.65-1.16,1.51-1.51,2.83
				c-1.32,4.97,8.94,8.94,20.86,10.76c11.92,1.82,23.49-4.89,27.04-8.11C302.96,221.68,301.28,221.34,298.32,220.35z"/>
			<path class="st15" d="M302.72,217.07c-3.97-2.65,0.83-4.3-2.22-7.12c-1.44,0.36-0.6,5.95-2.89,7.86
				c-2.29,1.91-5.19,0.42-5.55,1.89c-0.36,1.47,3.3-0.35,6.27,0.64s4.64,1.33,5.95,3.01C307.19,220.72,306.69,219.72,302.72,217.07z
				"/>
			<path class="st15" d="M263.73,217.82c4.52,0.58,10.02,3.96,16.33,3.24l-9.51-3.24c0,0-7.31-3.71-8.21-5.58
				c-0.33-0.68-0.72-0.97-1.12-0.98c-0.1,0.65-0.06,1.18-0.06,1.18c0.49,3.53-1.62,3.66-3.29,5.45
				C260.89,218.16,259.21,217.23,263.73,217.82z"/>
		</g>
		<path class="st15" d="M264.4,206.31c0,0,12.49,19.49,27.07,14.85c10.37-3.3-0.98-18.87-0.98-18.87L264.4,206.31z"/>
		<path class="st1" d="M270.66,162.59l4.37-9.3c0,0-16.88,2.36-20.98,17.29c-4.43,16.15,0.86,34.86,15.14,40.12
			c14.28,5.26,18.36,3.41,25.44-1.15c7.08-4.57,23.65-33.09,2.79-50.46"/>
		<path class="st2" d="M302.78,177.73c-1.4-13.88-9.17-25.71-25.55-24.29c-25.18,2.18-23.62,44.28-10.07,57.16
			c8.22,7.81,21.84,6.68,27.73-1.18C300.89,201.42,303.9,188.91,302.78,177.73z"/>
		<path class="st3" d="M301.29,177.73c-1.15-5.53-2.18-10.91-4.98-15.11l-13.28,6.23c0,0-2.33,10.96-1.88,16.47
			c0.99,12.26,5.56,11.89,1.8,15.36c-3.03,2.81,1.86,7.62-1.32,15.04c4.56-0.62,10.63-2.78,13.27-6.31
			C300.89,201.42,303.86,190.13,301.29,177.73z"/>
		<path class="st2" d="M261.69,184.9c0,0,0.3-6.18-4.53-4.07c-4.83,2.11-4.02,12.71,2.27,12.39"/>
		<path class="st1" d="M293,166.34c0,0-2.76,14.78-16.66,17.25l0.35-4.68c0.19-1.36-1.45-2.17-2.43-1.22
			c-2.23,2.18-5.48,4.66-9.15,5.28l1.96-4.89c0,0-4.31,7.29-9.58,7.15c0,0-1.84-4.22-1.02-10.58c0.82-6.36,7.37-21.85,24.64-22.18
			C298.39,152.15,293,166.34,293,166.34z"/>
		<path class="st1" d="M290.72,163.89c0,0,1.26,9.79,3.08,12.56c1.82,2.77,4.43,8.17,4.43,8.17s0.49-4.91,4.4-4.91
			s-1.93-23.98-11.08-24.14C282.4,155.41,290.72,163.89,290.72,163.89z"/>
		<path class="st1" d="M297.9,166.17c0,0,4.91-8,1.4-12.73c-3.52-4.72-7.59-6.03-9.55-6.03s-2.42-2.28-8.63-1.63
			c-6.21,0.65-14.51,3.58-11.34,10.76C272.94,163.73,297.9,166.17,297.9,166.17z"/>
		<path class="st13" d="M307.59,255.81c0,0-3.23,2.48-1.57,9.93c1.66,7.45,18.36,33.87,18.36,33.87L307.59,255.81z"/>
		<path class="st13" d="M239.79,252.88c0,0-0.31,11.72,0.89,29.59c0,0-13.02,13.08-25.04,14.22c0,0,14.33-9.49,17.44-15.82
			C236.19,274.54,239.79,252.88,239.79,252.88z"/>
		<path class="st2" d="M298.32,183.58c0,0,1.23-6.19,5.85-3.65c4.62,2.54,2.86,13.02-3.37,12.14"/>
		<path class="st6" d="M299.08,160.09c0,0-13.57-13.4-30.11-7.63l0.81,4.08C269.78,156.55,285.8,154.44,299.08,160.09z"/>
		<path class="st3" d="M298.33,183.68c0,0,1.23-6.19,5.85-3.65s2.86,13.02-3.37,12.14"/>
	</g>
	<g>
		<g>
			<path class="st2" d="M551.73,114.06c0,0-0.84-8.62,0.63-15.13c1.47-6.5,3.03-7.78,4.32-13.32c1.29-5.55,5.14-13.56,4.32-13.96
				s-3.88-1.51-5.61,2.25c-1.72,3.76-3.83,7.53-3.83,7.53l-2.6-18.62c0,0-0.95-7.34-3.8-6.69c-2.9,0.66,0.78,15.24-0.36,15.62
				c-1.64,0.55-4.04-8.29-4.04-8.29s-2.22-9.6-5.08-9.01c-2.86,0.6,2.62,16.59,2.62,16.59s0.37,2.78-1.23,1.82
				c-1.59-0.96-4.99-13.99-7.66-13.97c-2.67,0.02,1.47,10.75,1.47,10.75s3.18,5.85,0.85,5.99c-2.33,0.13-6.76-9.68-8.59-8.75
				c-1.82,0.93,2.12,8.36,3.94,10.95c1.83,2.59,3.65,6.74,4.18,10.21c0.53,3.47,1.34,8.06,4.71,10.17l-0.18,11.85L551.73,114.06z"/>
			<path class="st3" d="M551.03,81.84c0,0-5.6,6.96-5.81,10.57l-1.06-5.74C544.16,86.66,549.08,83.38,551.03,81.84z"/>
		</g>
		<path class="st1" d="M664.65,140.47l5.05,5.17c0,0,6.11,5.17,1.67,14.48c-2.59,5.42-6.08,3.93-4.44,9.51
			c1.65,5.58-3.53,10.24-7.5,8.5c-3.63-1.59-8.85,12.54-12.91,5.44c-4.06-7.1-14.96-1.25-22.32-1.56
			c-9.38-0.4-12.67-6.55-10.89-10.48c1.77-3.93,0.89-6.72-3.17-9.63c-4.06-2.92-4.04-9.26-0.11-11.16
			c3.93-1.9,7.71-16.09,7.71-16.09l8.24-5.96c0,0,25.1,3.8,25.86,3.8C652.61,132.48,664.65,140.47,664.65,140.47z"/>
		<path class="st1" d="M652.89,151.86c0,0,15.45,4.75,12.83,8.29c-2.62,3.54-3.91,4.29-3.76,7.9c0.15,3.61,2.09,7.72-1.37,10.83
			c-3.46,3.11-17.67,2.84-17.67,2.84l-14.2-0.09l-11.58-4.86c0,0-1.62-1-1.49-3.99c0.12-2.99,0.74-6.98-1.25-9.22
			c-1.99-2.24-3.61-8.6-1.74-11.03c1.87-2.43,14.7-2.55,15.45-2.55"/>
		<path class="st16" d="M681.05,194.16c0,0-4.42-24.02-35.4-23.96c-30.97,0.06-42.87,9.87-45.98,23.96
			c-3.11,14.1,22.39,13.72,22.39,13.72l30.83,0L681.05,194.16z"/>
		<path class="st16" d="M633.19,179.45c0,0-0.76-0.13-1.9-0.21c-3.45-0.24-10.48,0-11.22,5.77c0,0,3.82,4.19,10.28,5.6
			c6.46,1.41,28.01-4.15,28.01-4.15s1.82-7.04-9.93-7.27"/>
		<path class="st2" d="M652.23,165.96c0,0-0.25,26.32,2.73,28.55c0,0-14.9,8.44-30.79,0c0,0,0-20.11,0-25.82
			C624.17,162.98,652.23,165.96,652.23,165.96z"/>
		<path class="st17" d="M643.77,174.15l8.58,6.65c0,0-17.07,16.34-24.03,13.23c-4.55-2.03-4.16-6.18-4.16-6.18v-10.23L643.77,174.15
			z"/>
		<path class="st2" d="M660.35,148.64c-1.42-14.09-9.31-26.1-25.93-24.66c-25.55,2.21-23.98,44.95-10.22,58.02
			c8.34,7.92,22.17,6.79,28.15-1.2C658.43,172.68,661.49,159.99,660.35,148.64z"/>
		<path class="st3" d="M615.67,146.92c1.15-5.53,2.18-10.91,4.98-15.11l13.28,6.23c0,0,2.33,10.96,1.88,16.47
			c-0.99,12.26-5.56,11.89-1.8,15.36c3.03,2.81-1.86,10.1,1.32,17.53c-4.56-0.62-11.77-3.88-13.76-7.8
			C616.74,170.13,613.1,159.33,615.67,146.92z"/>
		<path class="st18" d="M594.12,324.62c0,0-2.98,31.29-3.97,45.19c-0.99,13.9,1.99,72.24,1.99,72.24h35.29l10.06-63.3l8.07,63.3
			h37.21c0,0,4.22-88.63,0-105.51C678.55,319.66,594.12,324.62,594.12,324.62z"/>
		<path class="st1" d="M619.3,139.56c0,0-0.14-3.23,3.14-1.17c3.29,2.05,9.87,2.98,10.79-0.34c0.93-3.32,4.36-5.08,6.5-2.44
			c2.14,2.64,8,2.49,9.57,0.15c1.57-2.35,4.33,0.42,4.57,5.28c0.2,3.88,2.86,10.12,8.57,9.68c5.72-0.44,9-6.89,9.74-12.29
			c1.33-9.71-1.87-13.7-8.47-15.57c-5.78-1.63-3.14-10.09-12.41-9.38c-5.57,0.43-7.63,2.72-10.29-0.14
			c-3.53-3.81-9.57-3.23-11.72-0.88s-2.72,3.23-7.57,2.49c-4.86-0.73-11.64,3.81-10.96,10.26c0.67,6.45,3.1,8.8-1.18,10.7
			c-4.29,1.91-4.25,14.31,0.45,14.83C613.32,151.09,621.01,150.7,619.3,139.56z"/>
		<path class="st16" d="M655.45,187.07c0,0-17.69,20.52-32.78,0c0,0-24.33-4.22-32.28,11.92c-6.27,12.73-0.25,79.28-0.25,79.28
			s2.27,11.8,0.99,28.73c-0.42,5.56-8.89,29.78-1.2,36.23c7.7,6.46,36.4,3.16,44.9,2.01c43.4-5.89,34.27,11.36,45.44,1.58
			c11.17-9.78,10.43-57.95,10.68-71.85c0.25-13.9,5.71-53.38,4.22-61.08C693.69,206.18,686.24,185.58,655.45,187.07z"/>
		<polyline class="st16" points="681.5,297.3 681.5,284.58 655.45,355.26 666.21,352.38 682.77,293.15 		"/>
		<path class="st16" d="M555.28,99.87l17.4,72.34c0,0,16.67,19.39,37.58,19.18c14.58-0.14,0.36,78.43-12.08,69.41
			c-21.31-15.45-41.46-46.92-52.27-63.15c-3.4-5.11-5.52-10.97-6.16-17.08l-7.21-77.81L555.28,99.87z"/>
		<path class="st16" d="M671.54,188.31c2.72-0.39,9.9,4.78,9.9,4.78s1.49,6.64-10.84,8.87c-9.67,1.75-22.12,7.16-22.12,7.16
			S663.85,189.41,671.54,188.31z"/>
		<polygon class="st2" points="666.71,342.23 662.22,349.42 655.95,354.27 676.8,367.08 678.54,360.09 679.71,353.1 		"/>
		<path class="st16" d="M607.28,188.57c-2.7-0.4-9.9,1.2-9.9,1.2s-1.49,8.42,10.84,10.66c9.67,1.75,22.12,7.16,22.12,7.16
			S614.96,189.72,607.28,188.57z"/>
		<path class="st16" d="M673.01,203.95l10.74-9.29c0,0,11.26,8.55,16.89,29.4c5.42,20.1,12.91,30.54,11.17,60.34
			s-23.09,74.74-31.78,75.73l-17.63-11.88c0,0,18.37-62.37,20.36-67.58l-17.88-63.81L673.01,203.95z"/>
		<polygon class="st16" points="658.45,188.31 657.77,186.6 653.34,187.69 653.2,189.3 645.56,203.65 		"/>
		<path class="st16" d="M654.96,177.63c0,0,6.49,3.76,1.8,11.03c-2.45,3.8-11.78,13.82-12.99,18.92l4.71,1.55
			c0,0,20.07-8.44,27.07-11.35c6.64-2.76,4.94-11.31,2.01-13.66C674.63,181.76,654.96,177.63,654.96,177.63z"/>
		<path class="st16" d="M620.06,185.16c0,0-1.49,3.89,1.31,6.63c2.8,2.73,13.82,12.57,13.82,12.57l-11.03-15.32v-0.83L620.06,185.16
			z"/>
		<path class="st16" d="M621.93,179.45c0,0-3.43,5.55,0.02,10.42c2.62,3.69,13.64,12.61,14.84,17.7l-2.23,1.05
			c0,0-21.97-7.11-28.56-10.85c-6.34-3.61-4.94-11.31-2.01-13.66C606.93,181.76,621.93,179.45,621.93,179.45z"/>
		<polygon class="st16" points="666.21,232.38 682.77,280.67 668.2,255.78 		"/>
		<path class="st19" d="M626.24,360.13l11.25,18.62l-10.06,63.3H617.3c0,0,11.14-36.36,8.61-32.18c-8.61,14.24-4.35-3.88-2.32-10.39
			C631.2,375.11,626.24,360.13,626.24,360.13z"/>
		<path class="st20" d="M650.98,203.46c0,0-6.45,3.52-2.51,19.07c3.94,15.56-0.76,29.35,0,38.54c0.76,9.19,4.3,13.78,1.47,23.51"/>
		<path class="st20" d="M627.72,201.97c0,0,6.45,5.01,2.51,20.56c-3.94,15.56,0.76,29.35,0,38.54c-0.76,9.19-6.06,31.13,0.11,42.45"
			/>
		<g>
			<path class="st2" d="M618.36,149.57c0,0-1.41-6.38-5.74-2.89c-4.33,3.49-1.87,16.03,5.74,11.98"/>
			<path class="st3" d="M618.36,149.57c0,0-1.41-6.38-5.74-2.89c-4.33,3.49-1.87,16.03,5.74,11.98"/>
		</g>
		<path class="st2" d="M656.08,149.7c0,0,1.49-6.74,6.06-3.05c4.57,3.69,1.98,16.94-6.07,12.67"/>
		<path class="st1" d="M664.4,131.81c0,0,0.65,5.93-2.93,5c-3.58-0.93-6.5,0.93-6.5,0.93s1.57-1.13,5.63,0.8
			C664.65,140.47,665.74,133.44,664.4,131.81z"/>
		<g>
			<path class="st1" d="M639.77,128.63c3.58,0.93,2.93-5,2.93-5c0.77,0.93,0.74,3.63-0.19,5.4c1.17-0.47,3.16-0.99,5.42-0.4
				c3.58,0.93,2.93-5,2.93-5c1.34,1.63,0.25,8.65-3.81,6.73c-2.3-1.09-3.8-1.2-4.67-1.09c-0.71,1.19-1.86,1.87-3.49,1.09
				c-3.55-1.69-5.2-1.03-5.55-0.84C633.8,129.24,636.51,127.79,639.77,128.63z"/>
			<path class="st1" d="M633.34,129.51c-0.05,0.03-0.08,0.05-0.08,0.05S633.29,129.54,633.34,129.51z"/>
		</g>
		<polygon class="st16" points="573.71,188.78 572.57,172.72 576.83,176.27 		"/>
		<path class="st16" d="M567.25,228.09c-4.43-6.56,27.89,18.01,27.89,18.01l-3.66,44.54l-3.22-38.67
			C588.26,251.98,573.86,237.85,567.25,228.09z"/>
	</g>
	<g>
		<g>
			<path class="st2" d="M468.3,167.06c0,0,1.02-9.12-0.45-16.03c-1.46-6.91-3.09-8.28-4.37-14.17c-1.28-5.89-5.24-14.44-4.37-14.84
				c0.87-0.4,4.13-1.54,5.9,2.46c1.77,4,3.95,8.03,3.95,8.03l3.03-19.68c0,0,1.12-7.76,4.12-7.02c3.06,0.75-1.05,16.12,0.15,16.54
				c1.73,0.6,4.4-8.72,4.4-8.72s2.49-10.13,5.51-9.46c3.02,0.67-3.02,17.52-3.02,17.52s-0.43,2.94,1.27,1.95
				c1.7-0.99,5.49-14.74,8.32-14.67c2.83,0.06-1.71,11.36-1.71,11.36s-3.45,6.15-0.99,6.33c2.46,0.18,7.31-10.15,9.22-9.13
				c1.92,1.01-2.36,8.82-4.33,11.54c-1.97,2.72-3.97,7.08-4.58,10.75c-0.61,3.67-1.54,8.52-5.14,10.69l0.01,12.55L468.3,167.06z"/>
			<path class="st3" d="M469.52,132.95c0,0,5.83,7.46,5.99,11.27l1.21-6.06C476.72,138.16,471.56,134.61,469.52,132.95z"/>
		</g>
		<path class="st2" d="M367.37,172.65c0,0,0.25,26.32-2.73,28.55c0,0,14.9,8.44,30.79,0c0,0,0-20.11,0-25.82
			C395.43,169.67,367.37,172.65,367.37,172.65z"/>
		<path class="st17" d="M375.83,180.84l-8.58,6.65c0,0,17.07,16.34,24.03,13.23c4.55-2.03,4.16-6.18,4.16-6.18v-10.23L375.83,180.84
			z"/>
		<path class="st5" d="M382.11,201.12c-5.32,0.1-17.47-4.18-21.2-1.98c-2.93,1.73,2.61,13.36,2.61,13.36l6.66,35.42l13.55,11.29
			l16.58-26.19c0,0,6.76-27.06,0.88-32.78C397.77,196.92,386.93,201.03,382.11,201.12z"/>
		<path class="st2" d="M359.25,155.33c1.42-14.09,9.31-26.1,25.93-24.66c25.55,2.21,23.98,44.95,10.22,58.02
			c-8.34,7.92-22.17,6.79-28.15-1.2C361.17,179.37,358.11,166.68,359.25,155.33z"/>
		<path class="st3" d="M403.93,153.61c-1.15-5.53-2.18-10.91-4.98-15.11l-13.28,6.23c0,0-2.33,10.96-1.88,16.47
			c0.99,12.26,5.56,11.89,1.8,15.36c-3.03,2.81,1.86,10.1-1.32,17.53c4.56-0.62,11.77-3.88,13.76-7.8
			C402.86,176.82,406.5,166.01,403.93,153.61z"/>
		<path class="st6" d="M338.98,327.84c0,0-2.98,31.29-3.97,45.19c-0.99,13.9,1.99,69.03,1.99,69.03h35.29l10.06-60.09l8.07,60.09
			h37.21c0,0,4.22-85.42,0-102.3C423.41,322.87,338.98,327.84,338.98,327.84z"/>
		<path class="st18" d="M364.99,198.22l17.17,56.85c0,0,12.14-41.2,13.62-56.35c0,0,18.87-4.22,26.82,11.92
			c6.27,12.73,5.15,82.09,5.71,106.02c0.13,5.58,8.89,32.26,1.2,38.71s-36.4,3.16-44.9,2.01c-43.4-5.89-34.27,11.36-45.44,1.58
			c-11.17-9.78-10.43-57.95-10.68-71.85c-0.25-13.9,1.24-53.38,2.73-61.08C332.71,218.34,334.2,196.73,364.99,198.22z"/>
		<path class="st18" d="M404.9,204.62l7.31-4.18l38.3,16.4l14.54-62.2c0,0,23.87,1.13,23.87,1.13c-0.36,22.64,0,70.46-11.21,94.49
			c-1.69,3.62-5.52,5.82-9.18,7.41c-11.68,5.07-58.83-3.95-58.83-3.95L404.9,204.62z"/>
		<path class="st2" d="M326.3,358.17c0,0-0.08,14.29-0.08,15.94s9.18,14.02,11.66,14.34c2.48,0.32-3.23-12.82-3.23-12.82l1.58-5.78
			l1.78,6.78c0.24,0.91,1.48,1.04,1.9,0.19c0.52-1.07,1.01-2.37,1.01-3.51c0-2.46-3.49-13.66-3.49-13.66L326.3,358.17z"/>
		<path class="st18" d="M355.06,222.08l-4.99-22.32c0,0-21.52,4.53-26.36,26.31c-4.84,21.79-10.33,73.24-10.33,73.24l9.42,64.42
			l23.23-2.1l-2.67-68.5L355.06,222.08z"/>
		<polygon class="st16" points="341.94,255.92 337.73,301.29 341.46,362.07 330.73,300.68 		"/>
		<path class="st16" d="M425.83,240.31v16.09c0,0,39.35,7.58,46.79-0.99c0,0-21.68-3.17-32.75-7.81
			C427.62,242.46,425.83,240.31,425.83,240.31z"/>
		<path class="st16" d="M450.51,216.84c0,0,7.36,2.82,11.95,6.17l-10.74-11.34L450.51,216.84z"/>
		<path class="st1" d="M400.14,131.89c-13.44-13.73-36.8-5.43-41.65,7.79c-3.43,9.35-0.79,25.96,0,20.82
			c1.14-7.41,5.02-18.48,8.75-13.84c3.38,4.2,16.48,7.24,28.18-1.45c3.04-2.25,5.34,4.69,6.06,5.93c1.61,2.78,3.11,5.57,3,9.04
			c-0.24,7.24,1.38,6.18,1.67,2.81C406.44,159.61,407.43,136.64,400.14,131.89z"/>
		<g>
			<path class="st2" d="M401.24,156.26c0,0,1.41-6.38,5.74-2.89c4.33,3.49,1.87,16.03-5.74,11.98"/>
			<path class="st3" d="M401.24,156.26c0,0,1.41-6.38,5.74-2.89c4.33,3.49,1.87,16.03-5.74,11.98"/>
		</g>
		<path class="st2" d="M363.52,156.39c0,0-1.49-6.74-6.06-3.05c-4.57,3.69-1.98,16.94,6.07,12.67"/>
		<path class="st1" d="M395.4,125.91c-3.62-2.01-1.51,1.12-1.51,1.12s-12.5-5.34-11.23-3.93c1.26,1.4,2.53,2.49,2.53,2.49
			s-2.93-2.35-8.13-2.07c-4.34,0.23-2.24,0.95-1.41,1.19c-1-0.25-4.65-0.94-8.71,0.88c-4.77,2.14,0,1.86,0,1.86
			s-12.1,5.96-9.26,6.05c2.28,0.08,3.64-0.3,3.64-0.3l-2.94,4.63l12.94-1.52c-1.77,0.83-9.51,3.99-9.98,5.24
			c-1.19,3.17-4.32,8.13-1.79,7.24c8.68-3.04,1.41-8.02,21.81-8.09c14.26-0.05,19.3,4.49,19.3,4.49l-0.35-2.36l4.88,8.48
			C405.18,151.33,409.74,133.9,395.4,125.91z"/>
		<path class="st21" d="M395.01,421.87c-0.03-0.26-0.04-1.07-0.04-1.07c1.35,0.76,4.29,6.53,8.19,7.92
			c3.7,1.32-4.23-7.67-9.25-40.27l-0.56-17.05l-11,10.55l8.07,60.09h5.25h9.54C405.21,442.06,397.09,438.77,395.01,421.87z"/>
	</g>
	<g>
		<g>
			<path class="st1" d="M518.2,213.53c0,0-0.43,5.61-1.78,10.77c-1.12,4.29-2.86,8.27-5.5,8.49c-5.83,0.49-10.48-7.12-7.18-12.3
				c3.3-5.18-4.79-6.31-9-5.02c-4.21,1.29-10.68-7.12-4.05-11.17c6.64-4.05-0.79-6.75-4.69-6.75c-5.61,0-10.46-12.28,2.43-19.31
				c6.42-3.5-6.42-2.13-6.96-7.12c-0.6-5.53,4.85-7.14,12.79-6.32c6.12,0.63-1.87-9.71,6.51-8.74c8.38,0.97,0.65-9.39,7.11-8.58
				c6.45,0.81,2.69-10.37,10.34-10.36c9.4,0.02,7.12,11.11,9.39,9.23c5.36-4.46,10.85-4.46,11.98,0c1,3.93,10.42-9.04,15.05-5.83
				c4.69,3.25-2.08,12.77,0,11.81c4.29-1.96,5.66,0.16,5.18,2.27c-0.49,2.1,7.23-3.72,11.23-0.73c3.23,2.42,3.1,5.79,0.1,8.98
				c-2.44,2.6,7.61,0,8.74,2.91c1.13,2.91-0.49,5.18-2.59,7.12c-2.1,1.94,10.18,2.5,11.8,7.52c1.62,5.02-0.99,11.45-7.75,12.87
				c-5.03,1.06-11.81-5.5-9.39-3.08c2.43,2.43,12.46,10.52,9.23,17.16c-3.24,6.64-10.52-3.72-9.55,0.65
				c0.97,4.37,10.03,14.08,6.8,20.88c-3.24,6.8-11.49,6.8-13.11,1.46c-1.62-5.34-2.91-2.59-2.91,1.13c0,3.72-6.47,3.08-8.09-1.29
				c-1.62-4.37-0.09,3.72-2.72,7.77c-2.62,4.05-13.43,7.77-15.88,3.56c-2.44-4.21-7.95-10.68-7.95-10.68L518.2,213.53z"/>
			<path class="st1" d="M560.05,176.3c0,0,11,12.36,7.6,13.95s-2.66,6.34,0.65,12.06s-4.09,7.5-6.13,6.77
				c-2.05-0.73,2.23,5.64,0.42,11.47s-6.59,0.18-8.78,0.18s1.52,17.27-7.86,15.43c-9.38-1.84-26.34-18.29-26.34-18.29
				s-3.06,10.63-7.61,8.2c-4.55-2.43-1.2-12.64-2.73-13.73c-1.53-1.1-6.56,0.36-9.81-3.21c-3.73-4.1,4.59-11.21,6.04-11.58
				c1.46-0.37-11.41,1.08-11.65-5.23c-0.24-6.31,5.94-4.86,9.89-10.44c3.95-5.58,17.06-12.87,17.06-12.87L560.05,176.3z"/>
			<path class="st2" d="M517.01,205.43c0,0,2.63,29.62-0.68,33.02c-3.31,3.4-6.71-1.21-14.23-1.21c-7.53,0-18.78,13.84-18.78,13.84
				l2.28,18.45l11.9,73.15l63.77,1.29c0,0,8.49-39.18,10.03-52.44c1.83-15.74,5.1-50.66,5.1-50.66s-12.87-6.07-17.96-0.97
				c-3.89,3.89-10.27,2.03-11.65-0.24c-2.42-3.99-0.08-32.05-0.08-32.05h-24.2"/>
			<path class="st22" d="M517.39,200.82l0.51,21.33c0,0,20.67,24.1,28.05,14.01V213.2L517.39,200.82z"/>
			<path class="st2" d="M556.38,186.65c-1.51-15-9.91-27.78-27.6-26.25c-27.2,2.36-25.52,47.85-10.88,61.75
				c8.88,8.43,23.59,7.22,29.96-1.27C554.34,212.24,557.59,198.72,556.38,186.65z"/>
			<path class="st3" d="M555.74,184.22c-1.24-5.98-3.81-12.27-6.84-16.81l-13.86,9.64c0,0-2.52,11.84-2.04,17.8
				c1.07,13.24,6,12.84,1.95,16.59c-3.28,3.03,2.01,8.23-1.43,16.25c4.93-0.67,11.48-3.01,14.33-6.81
				C554.34,212.24,558.52,197.62,555.74,184.22z"/>
			<path class="st23" d="M560.72,254.77l21.5-10.97c0,0,11.9,15.63,12.87,37.92c0.97,22.29-4.86,67.93-26.22,88.81
				c-21.36,20.88-17.28-23.31-17.28-23.31s6.38-28.16,4.55-34.47C554.29,306.43,560.72,254.77,560.72,254.77z"/>
			<path class="st2" d="M511.99,194.4c0,0,0.32-6.68-4.89-4.4c-5.21,2.28-4.34,13.73,2.45,13.39"/>
			<path class="st2" d="M551.56,192.97c0,0,1.33-6.68,6.32-3.94c4.99,2.74,3.09,14.07-3.64,13.12"/>
			<path class="st3" d="M551.58,193.08c0,0,1.33-6.68,6.32-3.94c4.99,2.74,3.09,14.07-3.64,13.12"/>
			<g>
				<path class="st2" d="M440.68,252.78c0,0-1.86-7.49-1.41-13.42c0.45-5.92,1.66-7.25,2.07-12.3c0.41-5.06,2.77-12.62,1.99-12.86
					c-0.77-0.24-3.62-0.83-4.65,2.71c-1.03,3.54-2.4,7.13-2.4,7.13l-4.71-16.07c0,0-1.79-6.34-4.22-5.4
					c-2.47,0.96,2.67,13.33,1.71,13.81c-1.37,0.7-4.64-6.78-4.64-6.78s-3.21-8.17-5.65-7.28c-2.44,0.9,4.47,14.28,4.47,14.28
					s0.69,2.41-0.84,1.77c-1.53-0.64-6.21-11.68-8.57-11.31c-2.35,0.37,2.69,9.29,2.69,9.29s3.56,4.74,1.53,5.17
					c-2.03,0.42-7.22-7.65-8.71-6.59c-1.49,1.06,2.95,7.09,4.9,9.14c1.95,2.05,4.1,5.46,5.01,8.45c0.91,2.99,2.23,6.93,5.48,8.35
					l1.39,10.47L440.68,252.78z"/>
				<path class="st3" d="M435.87,224.47c0,0-4.03,6.87-3.74,10.07l-1.68-4.92C430.45,229.61,434.35,226.08,435.87,224.47z"/>
			</g>
			<path class="st1" d="M560.05,182.14c0,0-0.97,10.75-7.3,8.11c-4.13-1.72-5.9-10.87-5.9-12.17c0-1.29-3.4,5.02-9.06,5.02
				c-5.66,0-7.44-6.47-6.47-11.33c0.97-4.86-1.78,7.28-7.77,6.47c-5.99-0.81-3.08-7.93-4.37-6.96c-1.29,0.97-6.41,18.75-12.07,18.71
				c-5.66-0.04-4.72-7.38-3.36-14.83c1.36-7.44,4.13-11.33,4.13-11.33l9.2-6.64l17.32-1.94l12.95,5.01l17.03,8.74L560.05,182.14z"/>
			<path class="st23" d="M561.25,343.97c0,0,5.48-4.11,12.95,17.16c5.02,14.3,16.83,40.79,16.83,80.93H467.71
				c0,0,4.76-65.93,29.78-99.38C511.73,323.65,561.25,343.97,561.25,343.97z"/>
			<path class="st24" d="M509.9,435.58l-32.52,6.48h113.65c0-40.14-11.81-66.63-16.83-80.93c-5.93-16.89-10.61-17.77-12.28-17.42
				C576.24,383.76,551.68,427.25,509.9,435.58z"/>
			<path class="st23" d="M486.81,255.44l-4.23-11.3c0,0-8.47,11.78-14.86,40.43c-6.39,28.65-2.02,51.95,4.53,50.25
				c6.55-1.7,29.37-38.36,29.37-38.36L486.81,255.44z"/>
			<path class="st23" d="M471.03,289.53l-30.83-50.35l-18.21,6.31c0,0,11.9,51.71,20.88,68.22c8.98,16.51,24.16,28.15,31.72,19.69
				C482.14,324.94,471.03,289.53,471.03,289.53z"/>
			<path class="st25" d="M500.57,342.71c0,0-4.97,14.91-3.11,30.52c0,0,3.7-20.94,8.4-29.7L500.57,342.71z"/>
			<path class="st25" d="M511.66,342.71c0,0-4.37,21.48-1.86,44.26c0,0,2.85-30.31,7.21-42.85L511.66,342.71z"/>
			<path class="st25" d="M547.8,338.28c0,0,4.37,21.48,1.86,44.26c0,0-2.85-30.31-7.21-42.85L547.8,338.28z"/>
			<path class="st25" d="M556.38,335.8c0,0,6.39,15.26,7.88,32.49c0,0-6.56-22.02-11.64-30.66L556.38,335.8z"/>
			<path class="st25" d="M526.93,343.97c0,0-2.32,21.8,2.33,44.24c0,0-0.03-30.44,3.13-43.34L526.93,343.97z"/>
			<path class="st25" d="M572.08,308.37v-23.32l-9.91,58.92c0,0,5.27-0.59,9.91,11.64v-15.08c1.73,0.25,3.68,0.29,4.31-0.67
				C577.6,338.02,569.4,333.4,572.08,308.37z"/>
			<path class="st25" d="M489.21,287.53c0,0-2.04,5.13-2.55,14.66c-0.95,17.64-17.28,36.55-5.75,24.32
				c19.92-21.14,15.14-37.08,15.14-37.08"/>
			<path class="st23" d="M478.55,250.83c0,0,7.28-20.61,31.07-12.97c0,0,9.91,57.89,26.07,63.95c16.17,6.07-5.85,25.98-5.85,25.98
				l-32.36,14.89L478.55,250.83z"/>
			<path class="st25" d="M535.7,307.64l-3.66-7.79c0,0-15.04,16.29-38.16,23.88l2.31,12.68l24.11-16.08L535.7,307.64z"/>
			<path class="st23" d="M495.53,330.67c0,0,26.22-19.56,36.51-30.82c16.59-18.14,19.53-58,19.53-58s18.01-11.41,30.64,1.94
				c12.62,13.35-9.96,39.01-9.96,39.01l-11,61.17l-63.77-1.29L495.53,330.67z"/>
			<path class="st5" d="M495.42,338.74c0,0,20.19,5.36,68.22,0l-1.47,5.23c0,0-49.17,6.07-64.68-1.29L495.42,338.74z"/>
			<polygon class="st25" points="466.17,297.7 467.71,284.58 463.69,277.36 			"/>
		</g>
		<path class="st13" d="M516.33,238.45c0,0,4.4,26.35,14.66,26.05c9.8-0.28,15.78-24.84,15.78-24.84l0.28,0.35
			c0,0-3.63,29.3-16.7,29.3c-11.86,0-14.18-30.12-14.18-30.12L516.33,238.45z"/>
	</g>
</g>
</svg>
