<?xml version="1.0" encoding="utf-8"?>
<!-- Generator: Adobe Illustrator 26.1.0, SVG Export Plug-In . SVG Version: 6.00 Build 0)  -->
<svg version="1.1" xmlns="http://www.w3.org/2000/svg" xmlns:xlink="http://www.w3.org/1999/xlink" x="0px" y="0px"
	 viewBox="0 0 500 500" style="enable-background:new 0 0 500 500;" xml:space="preserve">
<style type="text/css">
	.st0{fill:#FFFFFF;}
	.st1{opacity:0.46;fill:#7B92DB;}
	.st2{fill:#EC9263;}
	.st3{fill:#FFD3B5;}
	.st4{fill:#BD5A30;}
	.st5{fill:#2E2453;}
	.st6{fill:#423A6B;}
	.st7{fill:#FCF9EB;}
	.st8{fill:#DDD8C3;}
	.st9{fill:#73889A;}
	.st10{fill:#403C3F;}
	.st11{fill:#C18B57;}
	.st12{fill:#181324;}
	.st13{fill:none;stroke:#D6A27F;stroke-linecap:round;stroke-linejoin:round;stroke-miterlimit:10;}
	.st14{fill:none;stroke:#C18B57;stroke-linecap:round;stroke-linejoin:round;stroke-miterlimit:10;}
	.st15{fill:#546677;}
	.st16{fill:#262024;}
	.st17{fill:#E8B897;}
	.st18{fill:#D3464E;}
	.st19{fill:none;stroke:#A04728;stroke-linecap:round;stroke-linejoin:round;stroke-miterlimit:10;}
	.st20{fill:none;stroke:#652A20;stroke-linecap:round;stroke-linejoin:round;stroke-miterlimit:10;}
	.st21{fill:#652A20;}
	.st22{fill:#C3BCB2;}
	.st23{fill:#A3947F;}
	.st24{fill:#B23945;}
	.st25{fill:#9E4628;}
	.st26{fill:#3C2F6F;}
	.st27{fill:none;stroke:#D17A54;stroke-linecap:round;stroke-linejoin:round;stroke-miterlimit:10;}
	.st28{fill:none;stroke:#3C2F6F;stroke-linecap:round;stroke-linejoin:round;stroke-miterlimit:10;}
	.st29{fill:#CB9A77;}
	.st30{fill:#AA7959;}
	.st31{fill:#CE7852;}
	.st32{fill:none;stroke:#652A20;stroke-linecap:round;stroke-miterlimit:10;}
	.st33{fill:#778893;}
	.st34{fill:#576872;}
	.st35{fill:#FECB6C;}
	.st36{fill:#D8A34E;}
	.st37{fill:#1D1E1E;}
</style>
<g id="BACKGROUND">
	<rect class="st0" width="500" height="500"/>
</g>
<g id="OBJECTS">
	<path class="st1" d="M68.98,400.56c0,0-34.92-5.7-30.67-48.22c4.25-42.52,16.68-83.7-0.36-108.71
		c-25.05-36.77-7.27-100.45,49.81-93.28c57.08,7.16,80.91,20.9,112.79-24.11c16.62-23.46,41.98-43.98,80.12-29.32
		s37.17,51.61,57.69,58.06c20.52,6.45,86.85-26.46,119.17,16.87s-2.92,77.8-6.62,96.51c-3.7,18.71,12.11,43.99,20.15,77.99
		c8.04,34-9.95,54.21-9.95,54.21H68.98z"/>
	<g>
		<g>
			<path class="st2" d="M354.83,221.11c0,0-11.63,25.17-15.59,34.68c-4.13,9.93-20.03,38.19-20.03,38.19s3.92,8.3,10.54,10.15
				c0,0,19.25-29.22,21.84-33.52c8.11-13.47,16.83-33.07,16.83-33.07S357.34,233.59,354.83,221.11z"/>
			<path class="st2" d="M321.34,291.65c0,0-6.03,3.59-8.01,4.78c-1.98,1.2-2.19,3.31-2.19,3.31s-3.5,4.68-4.62,7.38
				c-1.12,2.69-1.97,3.18-1.6,4.62c0.37,1.43,1.35,1.16,3.51-1.51c2.16-2.66,3.47-3.68,3.47-3.68s-0.51,2.6-1.84,5.01
				c-1.34,2.42-1.97,3.18-2.73,4.53s-0.69,2.84,0.68,2.96c1.37,0.12,3.92-0.33,3.92-0.33s4.26-1.25,6.87-5.6c0,0-2.3,4.68-2.85,5.51
				c-0.55,0.83,0.5,2.04,1.5,1.52c1.01-0.52,7.21-5.94,11.06-12.77c3.85-6.82,2.92-5.8,2.92-5.8L321.34,291.65z"/>
		</g>
		<g>
			<path class="st3" d="M361.13,246.22c0,0,20.6,18,24.67,20.38c4.07,2.38,22.96,19.83,22.96,19.83l-3.2,8.15
				c0,0-24.32-14.86-34.82-23.22c-8.02-6.39-18.05-12.89-18.05-12.89S359.22,255.94,361.13,246.22z"/>
			<path class="st3" d="M407.32,286.41c0,0,6.49-1.55,8.41-1.4c1.92,0.15,2.86,1.64,2.86,1.64s4.35,2.18,6.18,3.76
				c1.84,1.58,2.65,1.63,2.91,2.84c0.26,1.2-0.57,1.36-3.17,0.19c-2.6-1.18-3.95-1.44-3.95-1.44s1.35,1.74,3.24,3.04
				c1.89,1.3,2.65,1.63,3.72,2.35c1.07,0.72,1.57,1.86,0.6,2.46c-0.98,0.6-3.04,1.22-3.04,1.22s-3.63,0.65-7.19-1.6
				c0,0,3.46,2.62,4.17,3.03c0.71,0.41,0.39,1.7-0.55,1.69c-0.94-0.01-7.3-3.66-12.71-7.3c-5.41-3.64-7.98-5.22-7.98-5.22
				L407.32,286.41z"/>
		</g>
		<g>
			<path class="st4" d="M215.23,230.39c0,0,21.79,12.24,25.17,13.77c4.28,1.94,8.29,4.55,12.62,6.41
				c4.33,1.86,23.68,13.45,23.68,13.45l-2.16,8.48c0,0-27.34-12.4-37.24-15.09c-9.9-2.68-26.4-8.04-26.4-8.04
				S215.32,241.94,215.23,230.39z"/>
			<path class="st4" d="M276.7,264.01c0,0,6.23-2.38,8.16-2.48s3.05,1.26,3.05,1.26s4.59,1.6,6.62,2.93
				c2.03,1.33,2.84,1.27,3.25,2.44c0.41,1.16-0.39,1.42-3.12,0.59c-2.73-0.83-4.1-0.92-4.1-0.92s1.56,1.55,3.61,2.6
				c2.05,1.04,2.84,1.27,3.99,1.85c1.15,0.57,1.8,1.64,0.91,2.36c-0.89,0.72-2.86,1.6-2.86,1.6s-3.52,1.12-7.34-0.66
				c0,0,3.77,2.15,4.53,2.47c0.76,0.31,0.61,1.64-0.33,1.75c-0.94,0.11-7.54-1.79-13.38-4.7c-5.83-2.91-6.81-3.28-6.81-3.28
				L276.7,264.01z"/>
		</g>
		<g>
			<path class="st3" d="M282.55,248.37c0,0-17.33,21.17-20.95,24.19c-3.61,3.02-19.36,23.37-19.36,23.37l4.51,7.51
				c0,0,21.52-18.69,30.48-28.67c6.85-7.63,17.68-16.75,17.68-16.75S289.95,255.01,282.55,248.37z"/>
			<path class="st3" d="M243.26,295.37c0,0-6.66-0.48-8.53-0.02c-1.87,0.46-2.56,2.08-2.56,2.08s-3.94,2.85-5.49,4.71
				c-1.56,1.86-2.36,2.04-2.42,3.27c-0.06,1.23,0.78,1.25,3.16-0.33c2.37-1.58,3.66-2.06,3.66-2.06s-1.05,1.94-2.71,3.52
				s-2.36,2.04-3.29,2.92c-0.94,0.88-1.25,2.09-0.19,2.52c1.06,0.43,3.2,0.71,3.2,0.71s3.69,0.06,6.84-2.74c0,0-2.99,3.14-3.63,3.67
				s-0.11,1.75,0.82,1.58c0.93-0.17,6.61-4.79,11.36-9.26c4.75-4.46,5.68-4.19,5.68-4.19L243.26,295.37z"/>
		</g>
		<g>
			<path class="st5" d="M227.09,325.57c0,0-4.66,44.34-2.07,75h53.1c0,0,0.18-34.48-4.13-78.09L227.09,325.57z"/>
			<g>
				<path class="st6" d="M243.66,353.06c2.51-0.39,5.02-0.48,7.52-0.5c2.51,0.01,5.02,0.1,7.52,0.5c-2.51,0.4-5.02,0.49-7.52,0.5
					C248.67,353.55,246.16,353.45,243.66,353.06z"/>
			</g>
			<g>
				<path class="st6" d="M251.23,400.56c-0.21-3.96-0.3-7.92-0.38-11.88c-0.08-3.96-0.07-7.92-0.12-11.88
					c0.04-3.96,0.04-7.92,0.11-11.88l0.14-5.94c0.08-1.98,0.13-3.96,0.25-5.94c0.11,1.98,0.16,3.96,0.25,5.94l0.14,5.94
					c0.08,3.96,0.08,7.92,0.11,11.88c-0.04,3.96-0.03,7.92-0.12,11.88C251.54,392.65,251.44,396.61,251.23,400.56z"/>
			</g>
			<path class="st2" d="M169.73,285.55c0,0-6.52-2.49-8.54-2.59c-2.01-0.1-3.19,1.32-3.19,1.32s-4.8,1.67-6.92,3.07
				c-2.12,1.39-2.98,1.33-3.41,2.55c-0.43,1.22,0.41,1.49,3.26,0.62c2.86-0.87,4.29-0.96,4.29-0.96s-1.63,1.62-3.77,2.72
				c-2.14,1.09-2.98,1.33-4.18,1.93c-1.2,0.6-1.88,1.71-0.95,2.47c0.93,0.75,2.99,1.67,2.99,1.67s3.68,1.17,7.68-0.69
				c0,0-3.94,2.25-4.74,2.58c-0.8,0.33-0.64,1.72,0.34,1.83s7.89-1.87,14-4.91c6.11-3.04,7.13-3.43,7.13-3.43L169.73,285.55z"/>
			<path class="st2" d="M330.08,286.21c0,0,6.52-2.49,8.54-2.59c2.01-0.1,3.19,1.32,3.19,1.32s4.8,1.67,6.92,3.07
				c2.12,1.39,2.98,1.33,3.41,2.55c0.43,1.22-0.41,1.49-3.26,0.62c-2.86-0.87-4.29-0.96-4.29-0.96s1.63,1.62,3.77,2.72
				c2.14,1.09,2.98,1.33,4.18,1.93c1.2,0.6,1.89,1.71,0.95,2.47c-0.93,0.75-2.99,1.67-2.99,1.67s-3.68,1.17-7.68-0.69
				c0,0,3.94,2.25,4.74,2.58c0.8,0.33,0.64,1.72-0.34,1.83c-0.98,0.11-7.89-1.87-14-4.91c-6.11-3.04-7.13-3.43-7.13-3.43
				L330.08,286.21z"/>
			<path class="st7" d="M330.34,283.56c0,0-33.67-15.33-44.04-21.15c-10.36-5.83-25.3-12.3-25.3-12.3s1.66,25.4,2.45,38.64
				c0.93,15.67,0.5,37.91,0.5,37.91c1.13,26.21,19.72,26.42,19.72,26.42s0.04-1.08,0-8.63c-0.04-7.55-8.81-44.04-7.3-51.59
				c1.51-7.56,2.09-12.74,2.09-12.74s14.32,5.61,20.79,7.58c6.48,1.96,29.14,8.61,29.14,8.61
				C332.29,291.54,330.34,283.56,330.34,283.56z"/>
			<path class="st7" d="M234.63,280.15c-2.01-20.72-1.02-28.01-1.02-28.01s-11.01,4.7-21.37,10.53
				c-10.36,5.83-44.04,21.15-44.04,21.15s-1.94,7.99,1.94,12.74c0,0,22.67-6.65,29.14-8.61s20.79-7.58,20.79-7.58
				s0.58,5.18,2.09,12.74c1.51,7.55-7.26,44.04-7.3,51.59c-0.04,7.56,0,8.63,0,8.63s18.87-0.2,19.76-26.97
				c0.07-2.05,0.19-3.93,0.36-5.7C235.45,311.97,236.05,294.87,234.63,280.15z"/>
			<g>
				<path class="st8" d="M220.08,280.37c-0.39-1.29-0.48-2.58-0.5-3.88c0.01-1.29,0.1-2.59,0.5-3.88c0.4,1.3,0.49,2.59,0.5,3.88
					C220.56,277.78,220.48,279.07,220.08,280.37z"/>
			</g>
			<g>
				<path class="st8" d="M278.47,280.1c-0.26-1.28-0.38-2.49-0.46-3.72c-0.02-0.62-0.06-1.23-0.04-1.86
					c0.01-0.62,0.04-1.25,0.16-1.9c0.57,1.18,0.79,2.44,0.88,3.71c0.02,0.63,0.02,1.27-0.06,1.91
					C278.87,278.86,278.74,279.5,278.47,280.1z"/>
			</g>
		</g>
		<g>
			<path class="st3" d="M170.81,252c0,0,7.02-2.68,9.19-2.79c2.17-0.11,3.43,1.42,3.43,1.42s5.17,1.8,7.45,3.3
				c2.28,1.5,3.2,1.43,3.67,2.74c0.46,1.31-0.44,1.6-3.51,0.67c-3.07-0.93-4.62-1.03-4.62-1.03s1.76,1.75,4.06,2.92
				c2.3,1.18,3.2,1.43,4.5,2.08c1.29,0.65,2.03,1.84,1.02,2.65c-1.01,0.81-3.22,1.8-3.22,1.8s-3.96,1.26-8.27-0.74
				c0,0,4.24,2.42,5.1,2.78s0.69,1.85-0.37,1.97c-1.05,0.12-8.68-3.03-15.25-6.3c-6.57-3.27-7.49-2.68-7.49-2.68L170.81,252z"/>
			<path class="st9" d="M163.13,241.78c-5.09-1-54.3-17.47-54.3-17.47c6.96,7.12,10.52,28.47,10.52,28.47s33.76,7.75,38.52,9.59
				c9.59,3.71,12.69,0,12.69,0l3.09-11.8C173.65,250.57,172.41,243.61,163.13,241.78z"/>
		</g>
		<g>
			<path class="st10" d="M122.91,318.52c-2.94,2.32-13.3,6.5-20.73,7.43c-7.43,0.93-24.6-1.08-28.62-2.94
				c-4.02-1.86-5.88-0.77-5.88-0.77v-2.02l-7.27-0.1l-5.16,12.69c-4.95,27.74-3.81,67.76-3.81,67.76h71.47c0,0-1.44-36.3-1.24-50.12
				C121.88,336.62,122.91,318.52,122.91,318.52z"/>
			<path class="st3" d="M54.07,180.76c0,0,3.8,17.09,6.65,21.84c2.85,4.75,10.21,14.43,22.28,10.87
				c12.07-3.56,16.09-11.14,15.01-23.51c-1.08-12.38-3.25-18.56-3.25-18.56s-11.14-4.33-16.55-12.22c0,0-4.18,5.41-6.96,5.72
				C71.24,164.9,65.06,175.74,54.07,180.76z"/>
			<path class="st3" d="M60.72,202.61c-1.58-2.63-3.44-9.02-4.79-14.22c-3.15-0.93-5.89,2.34-4.29,7.61c2.01,6.65,7.12,8.2,7.12,8.2
				c1.22,0,2.07-0.2,2.67-0.46C61.17,203.33,60.93,202.96,60.72,202.61z"/>
			<path class="st3" d="M103.89,183.15c-0.5-5.99-4.91-7.87-7.46-4.86c0.56,2.95,1.15,6.83,1.57,11.67c0.12,1.38,0.17,2.7,0.16,3.96
				c0.58-0.05,1.27-0.2,2.12-0.53C100.28,193.39,104.46,190.08,103.89,183.15z"/>
			<path class="st11" d="M54.07,180.76c10.99-5.02,17.17-15.86,17.17-15.86c2.78-0.31,6.96-5.72,6.96-5.72
				c4.64-8.97,5.41-19.65,0.46-18.87c-4.95,0.77-5.72,8.2-17.95,13c-12.22,4.8-15.78,13.15-13.77,20.89
				c2.01,7.74,5.75,14.88,5.75,14.88c1.11-1.61,3.23-0.68,3.23-0.68C54.83,184.18,54.07,180.76,54.07,180.76z"/>
			<g>
				<path class="st11" d="M76.95,160.66c0.01-0.01,0.02-0.02,0.03-0.03C76.97,160.64,76.96,160.65,76.95,160.66z"/>
				<path class="st11" d="M78.2,159.18c0,0-0.02,0.02-0.03,0.04C78.19,159.19,78.2,159.18,78.2,159.18z"/>
				<path class="st11" d="M96.43,162.42c-1.96-4.82-9.28-10.16-15.25-11.01c-0.65,2.52-1.66,5.21-2.98,7.76
					c5.41,7.89,16.55,12.22,16.55,12.22s0.8,2.31,1.68,6.89c0,0,2.08-2.3,3.76-1.26C100.18,177.03,98.57,167.68,96.43,162.42z"/>
				<path class="st11" d="M78.09,159.31c0,0-0.01,0.01-0.01,0.02C78.09,159.32,78.09,159.31,78.09,159.31z"/>
			</g>
			<path class="st12" d="M69.31,190.6c0.44,1.51,0.07,2.95-0.83,3.21c-0.9,0.27-1.99-0.74-2.44-2.25c-0.44-1.51-0.07-2.95,0.83-3.21
				C67.78,188.08,68.87,189.09,69.31,190.6z"/>
			<path class="st12" d="M88.6,184.92c0.44,1.51,0.07,2.95-0.83,3.21c-0.9,0.27-1.99-0.74-2.44-2.25c-0.44-1.51-0.07-2.95,0.83-3.21
				C87.06,182.41,88.15,183.41,88.6,184.92z"/>
			<path class="st13" d="M75.42,183.7c0.46,0.08,4.41,6.81,5.72,8.51c1.32,1.7-0.08,4.33-1.47,4.87"/>
			<path class="st13" d="M74.64,202.26c0.31,0.08,3.25,3.71,8.82,1.08"/>
			<path class="st14" d="M61.8,184.62c0,0,0.08-3.71,4.02-4.64"/>
			<path class="st14" d="M84.93,175.81c0.46,0.15,3.94-0.7,5.72,1.93"/>
			<path class="st9" d="M76.12,214.25c0,0-5.35,0.31-5.19,6.81c0,0-2.48,2.32-0.77,5.88c0,0-12.22,6.5-16.71,16.86
				s-10.21,53.53-8.97,62.19c0,0-2.48,4.02-1.24,6.03c1.24,2.01,2.01,2.17,2.01,2.17s0.31,4.18,3.4,4.49c3.09,0.31,19.03,0,19.03,0
				v3.56c0,0,1.86-1.08,5.88,0.77c4.02,1.86,21.19,3.87,28.62,2.94c7.43-0.93,17.79-5.11,20.73-7.43c0,0,2.32,0.15,0.93-7.43
				c-1.39-7.58-2.63-19.03-2.32-27.85c0.31-8.82-2.17-30.48-2.17-30.48s-3.56-21.35-10.52-28.47l-8.65-2.63c0,0,1.41-2.48,0-4.33
				c-1.41-1.86-1.41-1.86-1.41-1.86s-0.96-5.23-9.37-4.7l-3.16,5.63L76.12,214.25z"/>
			<path class="st3" d="M76.12,214.25l1.82,5.93c0,0,3.71,8.35,10.73,13.82c0,0,3.92-6.08,2.48-18.05l-1.74-5.17
				C89.4,210.79,84.92,214.19,76.12,214.25z"/>
			<g>
				<path class="st15" d="M67.68,318.67c0.61-0.16,1.2-0.41,1.7-0.77c0.5-0.35,0.9-0.88,0.87-1.47c-0.03-0.56-0.32-1.18-0.53-1.74
					c-0.24-0.56-0.52-1.15-0.87-1.58l-0.33-0.42l0.58,0.01c0.29,0.01,0.73-0.37,0.98-0.76c0.28-0.41,0.49-0.87,0.67-1.35
					c0.36-0.95,0.58-1.99,0.8-3.01c0.11-0.51,0.18-0.99,0.17-1.49c-0.01-0.49-0.08-1.02-0.12-1.54c-0.1-1.05-0.19-2.11-0.25-3.17
					c-0.13-2.12-0.24-4.22-0.26-6.35c-0.06-2.14,0.13-4.26,0.31-6.37c0.43-4.22,1.05-8.41,1.88-12.56c0.8-4.15,1.74-8.28,2.86-12.35
					c-0.78,4.15-1.51,8.31-2.18,12.47c-0.62,4.17-1.26,8.34-1.62,12.53c-0.15,2.09-0.3,4.19-0.29,6.28c0,2.09,0.08,4.21,0.18,6.31
					c0.05,1.05,0.13,2.1,0.21,3.15c0.04,0.53,0.08,1.05,0.08,1.62c0,0.57-0.11,1.13-0.24,1.65c-0.27,1.03-0.53,2.06-0.95,3.07
					c-0.21,0.5-0.45,1-0.79,1.45c-0.17,0.22-0.36,0.44-0.61,0.62c-0.25,0.17-0.51,0.34-0.94,0.3l0.24-0.41
					c0.41,0.58,0.63,1.16,0.85,1.77c0.19,0.62,0.44,1.19,0.44,1.88c-0.01,0.7-0.51,1.27-1.05,1.59
					C68.91,318.37,68.3,318.56,67.68,318.67z"/>
			</g>
			<g>
				<path class="st15" d="M91.46,305.06c1.16-0.84,2.31-1.67,3.41-2.58c1.12-0.87,2.22-1.77,3.28-2.71
					c2.13-1.87,4.19-3.81,6.09-5.89c1.9-2.09,3.62-4.32,5.18-6.67c0.69-1.22,1.47-2.41,2-3.72c0.69-1.25,1.05-2.62,1.58-3.95
					c-0.31,1.39-0.58,2.81-1.13,4.14c-0.45,1.37-1.17,2.63-1.8,3.93c-1.43,2.5-3.18,4.81-5.1,6.95c-1.96,2.11-4.08,4.06-6.35,5.81
					C96.37,302.12,94,303.75,91.46,305.06z"/>
			</g>
			<g>
				<path class="st15" d="M101.1,303.05l2.63-1.78c0.86-0.6,1.72-1.18,2.53-1.82c0.81-0.63,1.62-1.28,2.34-2.01
					c0.72-0.73,1.38-1.51,1.95-2.43c-0.18,1.07-0.71,2.07-1.36,2.94c-0.65,0.89-1.47,1.61-2.32,2.29c-0.86,0.66-1.78,1.23-2.75,1.7
					C103.15,302.41,102.15,302.82,101.1,303.05z"/>
			</g>
			<g>
				<path class="st15" d="M70.16,226.94c1.28,1.44,2.7,2.71,4.16,3.92c1.47,1.2,2.99,2.32,4.59,3.35c0.81,0.5,1.59,1.03,2.43,1.47
					l1.24,0.7l1.27,0.65c1.69,0.87,3.43,1.64,5.19,2.44c-0.94-0.21-1.87-0.45-2.8-0.73c-0.91-0.32-1.84-0.6-2.72-1
					c-1.8-0.71-3.5-1.68-5.15-2.69c-1.62-1.07-3.16-2.26-4.56-3.61C72.4,230.1,71.12,228.61,70.16,226.94z"/>
			</g>
			<g>
				<path class="st15" d="M100.18,221.68c-0.35,2.18-0.99,4.27-1.7,6.33c-0.74,2.05-1.55,4.08-2.64,5.99
					c0.35-2.2,0.99-4.27,1.7-6.33C98.28,225.62,99.09,223.61,100.18,221.68z"/>
			</g>
			<g>
				<path class="st15" d="M70.93,221.06c1.54,1.82,3.02,3.6,4.6,5.3c0.78,0.86,1.6,1.68,2.42,2.5c0.82,0.83,1.7,1.58,2.57,2.42
					c-1.09-0.48-2.13-1.09-3.07-1.82c-0.96-0.72-1.84-1.54-2.65-2.41c-0.8-0.88-1.56-1.81-2.21-2.81
					C71.93,223.23,71.35,222.18,70.93,221.06z"/>
			</g>
			<g>
				<path class="st15" d="M98.78,215.49c0.12,1.89-0.19,3.75-0.66,5.56c-0.5,1.8-1.18,3.57-2.28,5.12c0.37-1.85,0.86-3.6,1.32-5.38
					C97.64,219.02,98.11,217.26,98.78,215.49z"/>
			</g>
			<g>
				<path class="st15" d="M48.34,307.23c1.22-0.35,2.42-0.4,3.61-0.41c1.2,0.02,2.38,0.1,3.61,0.41c-1.18,0.48-2.41,0.58-3.61,0.59
					C50.74,307.79,49.53,307.67,48.34,307.23z"/>
			</g>
			<path class="st9" d="M51.54,318.79c0,0-0.42,4.32,0.41,5.15c0.83,0.83,15.73-0.72,15.73-0.72v-4.54L51.54,318.79z"/>
			<path class="st3" d="M55.56,324.15l-0.31,8.66c0,0,7.58-2.22,13.67-7.94l-1.24-1.65L55.56,324.15z"/>
			<g>
				<path class="st16" d="M63.6,328.9l-0.91,17.91c-0.29,5.97-0.6,11.94-0.82,17.91c-0.3,5.97-0.46,11.94-0.66,17.91
					c-0.09,2.99-0.18,5.97-0.22,8.96c-0.11,2.99-0.09,5.98-0.18,8.97c-0.3-5.97-0.4-11.96-0.37-17.94
					c0.04-5.98,0.21-11.96,0.43-17.94c0.3-5.97,0.6-11.95,1.05-17.91C62.38,340.8,62.9,334.84,63.6,328.9z"/>
			</g>
			<g>
				<path class="st16" d="M91.46,400.56c-0.36-5.59-0.48-11.2-0.45-16.8c0.04-5.61,0.27-11.21,0.8-16.81
					c0.62-5.58,1.64-11.22,4.07-16.36c1.22-2.58,2.92-4.82,3.94-7.4c1.12-2.55,1.76-5.28,2.41-8.01c-0.42,2.77-0.97,5.53-1.95,8.19
					c-0.95,2.68-2.61,5.02-3.7,7.54c-1.12,2.53-1.9,5.2-2.53,7.91c-0.59,2.7-0.96,5.47-1.25,8.24c-0.61,5.54-0.83,11.14-1.03,16.72
					c-0.1,2.79-0.17,5.59-0.2,8.39C91.51,394.96,91.5,397.76,91.46,400.56z"/>
			</g>
			<g>
				<path class="st16" d="M102.18,325.95c0.4,0.74,0.5,1.49,0.53,2.24c-0.01,0.75-0.08,1.5-0.47,2.25c-0.41-0.74-0.5-1.49-0.53-2.24
					C101.71,327.45,101.79,326.7,102.18,325.95z"/>
			</g>
			<g>
				<path class="st15" d="M119.78,256.78l-1.93-9.63c-0.65-3.2-1.41-6.35-2.25-9.54c1.58,2.91,2.55,6.12,3.23,9.34
					C119.48,250.18,119.89,253.47,119.78,256.78z"/>
			</g>
			<g>
				<path class="st15" d="M53.47,318.81c1.83-0.44,3.67-0.58,5.52-0.64c1.84-0.03,3.69,0.01,5.54,0.36
					c-1.83,0.44-3.67,0.58-5.52,0.64C57.17,319.2,55.33,319.15,53.47,318.81z"/>
			</g>
			<path class="st17" d="M91.14,215.95l-1.74-5.17c0,0-4.48,3.4-13.28,3.46l1.82,5.93C77.94,220.18,85.42,219.3,91.14,215.95z"/>
		</g>
		<g>
			<path class="st18" d="M160.32,216.57c0,0-13.57,4.43-17.08,5.82c-3.51,1.4-7.36,3.05-10.8,12.95c-3.44,9.9-5.77,13.15-5.77,13.15
				s8.11,3.15,18.01,5.62c0,0-6.39,17.95-8.04,27.43c-1.65,9.49-3.09,27.85-3.09,27.85s8.99,10.73,26.77,9.28
				c17.78-1.44,33.14-2.48,33.14-2.48s-5.48-14.85,0-37.95c5.48-23.1,5.68-32.8,5.68-32.8l11.76,3.92c0,0,5.16-8.04,4.33-18.98
				l-25.58-11.96l-5.57-2.94l-18.56-1.24L160.32,216.57z"/>
			<path class="st4" d="M162.94,164.66c0,0-4.33,17.32-1.86,26.42c2.48,9.09,9.59,11.91,14.85,12.2c5.26,0.3,10.83-0.82,15.16-7.07
				c4.33-6.25,8.04-22.96,8.04-22.96s-6.19-2.01-6.03-10.83c0,0-9.59,1.86-11.29-6.34c0,0-3.09,7.43-12.38,3.09
				C169.44,159.18,168.67,165.66,162.94,164.66z"/>
			<path class="st4" d="M161.94,169.35c-0.79-0.26-3.25-0.8-4.76,1.66c-1.82,2.96-3.35,11.02,2.05,14.09
				c0.39,0.22,0.76,0.33,1.12,0.36C160.16,179.95,161.13,173.58,161.94,169.35z"/>
			<path class="st12" d="M185.86,179.37c-0.2,1.41,0.33,2.64,1.17,2.76c0.84,0.12,1.68-0.93,1.88-2.34c0.2-1.41-0.33-2.64-1.17-2.76
				C186.9,176.91,186.06,177.96,185.86,179.37z"/>
			<path class="st12" d="M167.87,176.86c-0.2,1.41,0.33,2.64,1.17,2.76c0.84,0.12,1.68-0.93,1.88-2.34c0.2-1.41-0.33-2.64-1.17-2.76
				C168.9,174.4,168.06,175.45,167.87,176.86z"/>
			<path class="st19" d="M179.49,174.01c-0.4,0.13-3.04,6.67-3.99,8.37c-0.95,1.7,0.64,3.86,1.96,4.16"/>
			<path class="st19" d="M182.65,190.5c-0.27,0.11-2.41,3.75-7.74,2.14"/>
			<path class="st20" d="M191.78,173.03c0,0-0.56-3.31-4.21-3.61"/>
			<path class="st20" d="M171.82,167.21c-0.39,0.2-3.62-0.1-4.86,2.49"/>
			<path class="st4" d="M199.43,176.89c-0.39-0.07-0.79-0.06-1.17,0c-0.99,3.87-2.73,10.08-4.8,14.86c0.1,0.01,0.2,0.03,0.31,0.04
				c6.21,0.21,9.13-7.45,9.12-10.93C202.89,177.38,199.43,176.89,199.43,176.89z"/>
			<g>
				<path class="st21" d="M206.78,160.05c2.89-2.27,4.74-5.57,2.27-9.49c-2.48-3.92-8.25-2.06-8.25-2.06s-1.03-4.33-5.36-5.98
					c-4.33-1.65-7.63,1.03-7.63,1.03s-0.62-2.68-6.81-4.74c-6.19-2.06-10.31,3.3-10.31,3.3s-5.16-3.51-8.74,0
					c-3.58,3.51-1.62,8.46-1.62,8.46s-4.89,0.85-4.84,6.39c-0.55,9.9,3.23,12.16,3.23,12.16l3.1,0.89c0.59-3.19,1.13-5.35,1.13-5.35
					c5.72,1,6.5-5.49,6.5-5.49c9.28,4.33,12.38-3.09,12.38-3.09c1.7,8.2,11.29,6.34,11.29,6.34c-0.15,8.82,6.03,10.83,6.03,10.83
					s-0.36,1.6-0.97,3.99c0.03-0.12,0.06-0.24,0.09-0.36c0.39-0.06,0.78-0.06,1.17,0c0,0,1.23,0.18,2.22,1.06l1.24-3.04
					c0,0,6.57-1.65,7.31-7.22C210.94,162.12,206.78,160.05,206.78,160.05z"/>
			</g>
			<g>
				<path class="st22" d="M193.46,316.2c-0.16-0.61-0.34-1.2-0.53-1.76C193.24,315.59,193.46,316.2,193.46,316.2z"/>
				<path class="st22" d="M160.32,318.67c-11.13,0.9-18.81-2.96-23-5.97l-10.65,5.82l-2.2,10.38c0,0-4.95,30.82-3.3,71.67h81.27
					c0,0-1.98-57.45-8.98-84.36C193.46,316.2,178.1,317.23,160.32,318.67z"/>
			</g>
			<path class="st4" d="M181.8,202.84c-1.95,0.46-3.93,0.55-5.86,0.44c-2.03-0.11-4.34-0.61-6.55-1.69l0,0v9.16
				c0,0-0.16,1.38-3.87,3.5c0,0,2.27,12.23,7.63,11.92c5.36-0.31,9.08-5.16,10.93-10.67c0,0-2.06-2.01-2.27-3.66
				C181.64,210.44,181.76,204.68,181.8,202.84z"/>
			<path class="st0" d="M165.52,214.25l-5.2,2.33c0,0,0.25,14.7,3.55,16.63c3.3,1.93,8.66-0.75,9.28-7.04
				C167.79,226.47,165.52,214.25,165.52,214.25z"/>
			<path class="st0" d="M184.09,215.49c-1.86,5.52-5.57,10.37-10.93,10.67c0.83,7.12,5.78,8.15,8.66,7.04
				c2.89-1.11,7.84-14.77,7.84-14.77L184.09,215.49z"/>
			<path class="st4" d="M129.38,249.48c0,0-8.21,23.76-8.21,26.91c0,3.15,5.5,42.13,5.5,42.13s-1.99,4.72-2.2,10.38
				c0,0,7.63-2.9,13.2-10.38l-2.23-7.29c0,0,1.61-23.29,1.19-29.69c-0.41-6.39,8.04-27.43,8.04-27.43L129.38,249.48z"/>
			<g>
				<path class="st23" d="M168.82,332.8c-0.54,2.76-1.32,5.48-2.33,8.12c-0.5,1.32-1.11,2.61-1.84,3.84
					c-0.74,1.22-1.57,2.43-2.8,3.3l0.16-0.26c-0.4,4.36-0.67,8.76-0.81,13.15c-0.13,4.4-0.22,8.79-0.22,13.19
					c0.02,2.2,0.02,4.4,0.07,6.6c0.01,2.2,0.06,4.4,0.12,6.6l0.21,6.6l0.26,6.61c-0.47-4.38-0.87-8.78-1.11-13.18
					c-0.28-4.4-0.43-8.81-0.47-13.22c-0.04-4.41-0.02-8.83,0.19-13.24c0.22-4.41,0.44-8.82,1.02-13.21l0.02-0.17l0.14-0.09
					c1.1-0.73,1.96-1.86,2.7-3.01c0.74-1.17,1.37-2.42,1.93-3.7C167.2,338.19,168.07,335.51,168.82,332.8z"/>
			</g>
			<g>
				<path class="st23" d="M171,317.83c0.39,1.06,0.48,2.11,0.5,3.17c-0.01,1.06-0.1,2.12-0.5,3.17c-0.4-1.06-0.49-2.11-0.5-3.17
					C170.51,319.95,170.6,318.89,171,317.83z"/>
			</g>
			<path class="st23" d="M177.07,320.48c0,0.48-0.39,0.88-0.88,0.88c-0.48,0-0.88-0.39-0.88-0.88c0-0.48,0.39-0.88,0.88-0.88
				C176.68,319.6,177.07,320,177.07,320.48z"/>
			<g>
				<path class="st24" d="M144.69,254.11c0.21-1.79,0.71-3.48,1.28-5.14c0.6-1.65,1.27-3.28,2.22-4.81
					c-0.21,1.79-0.71,3.48-1.28,5.14C146.31,250.96,145.64,252.58,144.69,254.11z"/>
			</g>
			<g>
				<path class="st24" d="M160.32,297.94c1.08-0.28,2.15-0.56,3.21-0.89c1.06-0.3,2.12-0.63,3.15-1c2.07-0.74,4.14-1.5,6.1-2.48
					c1.96-0.96,3.87-2.04,5.6-3.37c0.45-0.31,0.83-0.7,1.25-1.05c0.2-0.18,0.42-0.35,0.61-0.54l0.55-0.61
					c0.36-0.41,0.8-0.77,1.09-1.24c0.31-0.45,0.64-0.9,0.98-1.35c-0.48,1-0.98,2.01-1.69,2.9l-0.51,0.68
					c-0.19,0.21-0.39,0.41-0.58,0.61c-0.4,0.39-0.77,0.83-1.2,1.19c-1.68,1.52-3.65,2.67-5.66,3.68c-2.02,0.99-4.15,1.74-6.31,2.32
					C164.75,297.35,162.55,297.8,160.32,297.94z"/>
			</g>
			<path class="st25" d="M181.73,207.39c0.01-1.81,0.05-3.64,0.07-4.54c-1.95,0.46-3.93,0.55-5.86,0.44
				c-2.03-0.11-4.34-0.61-6.55-1.69v4.84C171.9,206.94,176.55,207.67,181.73,207.39z"/>
			<g>
				<path class="st24" d="M199.14,245.45c-0.39-1.17-0.48-2.34-0.5-3.51c0.01-1.17,0.1-2.34,0.5-3.51c0.4,1.17,0.49,2.34,0.5,3.51
					C199.63,243.11,199.54,244.28,199.14,245.45z"/>
			</g>
		</g>
		<g>
			<path class="st26" d="M258.48,176.92c0,0-7.61-9.88-23.47-2.75c-15.87,7.12-28.56,30.38-12.5,74.2c0,0,0.53-3.45,9.16-2.59
				c8.63,0.86,25.9,0.22,25.9,0.22s5.09-4.1,5.89-8.85c0,0-0.71,5.18-2.87,8.85c0,0,8.82,0.22,12.07-0.65
				c3.26-0.86,6.49-15.17,7.36-31.76C280.88,197,274.29,172.6,258.48,176.92z"/>
			<path class="st2" d="M227.34,206.71c0,0,1.99,17,5.61,23.96c4.32,8.31,15.76,11.44,24.18,5.83c8.42-5.61,10.79-26.69,10.79-26.69
				s-1.51-5.04-4.32-13.25c0,0,0,3.02,0.22,5.18c0,0-4.21-8.2-4.64-13.28c0,0-3.35,8.2-10.04,11.66c0,0,3.56-5.18,4.1-9.71
				C253.25,190.41,242.89,204.77,227.34,206.71z"/>
			<path class="st12" d="M256.15,216.07c0.07,1.49,0.85,2.66,1.74,2.61c0.89-0.04,1.55-1.28,1.48-2.77
				c-0.07-1.49-0.85-2.66-1.74-2.61C256.74,213.34,256.08,214.58,256.15,216.07z"/>
			<path class="st12" d="M237.16,216.98c0.07,1.49,0.85,2.66,1.74,2.61c0.89-0.04,1.55-1.28,1.48-2.77
				c-0.07-1.49-0.85-2.66-1.74-2.61C237.75,214.26,237.08,215.5,237.16,216.98z"/>
			<path class="st27" d="M248.55,211.8c-0.39,0.21-1.83,7.45-2.47,9.38c-0.65,1.93,1.41,3.85,2.82,3.9"/>
			<path class="st27" d="M255.01,228.14c-0.25,0.17-1.75,4.33-7.54,3.7"/>
			<path class="st28" d="M261.01,208.4c0,0-1.22-3.29-5.03-2.9"/>
			<path class="st28" d="M239.35,206.29c-0.37,0.28-3.74,0.6-4.51,3.5"/>
			<path class="st2" d="M228.54,214.66L228.54,214.66c0,0-1.95-1.77-4.86-0.76c-2.91,1.01-0.42,14.1,7.99,13.71h0
				C230.32,223.79,229.27,218.8,228.54,214.66z"/>
			<path class="st2" d="M271.49,213.9c-1.95-0.68-3.46-0.11-4.25,0.34c-0.66,3.58-1.85,8.76-3.78,13.36c0.02,0,0.03,0,0.04,0
				C271.91,228,274.4,214.91,271.49,213.9z"/>
			<path class="st2" d="M254.96,237.7c-4.1,1.93-8.66,2.06-12.69,0.73l-0.03,0v8.86c0,0-0.65,11.39,5.39,12.28
				c6.04,0.89,7.18-7.1,7.37-11.2c0.19-4.1,0-10.67,0-10.67L254.96,237.7z"/>
			<path class="st29" d="M263.46,288.74c-1.57-13.17-2.45-38.64-2.45-38.64l-5.95-3.42c-0.01,0.59-0.03,1.17-0.05,1.7
				c-0.19,4.1-1.33,12.09-7.37,11.2c-6.04-0.89-5.39-12.28-5.39-12.28l-8.42,4.58c0,0-1.23,7.28,0.78,28
				c2.01,20.72,0.24,46.21,0.24,46.21s15.73,6.39,29.12,0.55C263.95,326.64,265.03,301.9,263.46,288.74z"/>
			<g>
				<path class="st30" d="M243.91,287.68c1.13-0.07,2.25-0.02,3.37,0.09c1.12,0.11,2.22,0.29,3.32,0.52
					c1.09,0.25,2.19,0.53,3.24,0.93c1.06,0.39,2.1,0.86,3.02,1.53c-2.18-0.57-4.31-1.02-6.47-1.48
					C248.23,288.78,246.07,288.34,243.91,287.68z"/>
			</g>
			<path class="st31" d="M255.08,241.95c-0.02-2.37-0.07-4.25-0.07-4.25l-0.05,0c-4.1,1.93-8.66,2.06-12.69,0.73l-0.03,0v3.79
				C244.86,242.78,249.74,243.38,255.08,241.95z"/>
		</g>
		<g>
			<path class="st21" d="M324.64,156.08c0,0-6.95-3.87-16.93-1.39c-9.99,2.48-15.87,10.27-15.87,22.15c0,11.88-3.4,32.96-4.95,41.6
				c-1.55,8.65,10.61,4.73,13.66,8.08c3.05,3.35,16.01,6.24,22.06,3.87c6.05-2.37,15.7-5.05,21.24-3.87
				c5.54,1.18,9.26-1.46,9.26-1.46s2.48-8.04-1.24-20.95c-3.71-12.91-3.4-21-4.02-32.89C347.23,159.33,336.4,151.6,324.64,156.08z"
				/>
			<path class="st3" d="M300.55,183.63c0,0,1.91,16.24,5.36,22.9c4.13,7.94,15.06,10.93,23.1,5.57c8.04-5.36,10.31-25.5,10.31-25.5
				s-1.44-4.82-4.13-12.66c0,0,0,2.89,0.21,4.95c0,0-4.02-7.84-4.43-12.69c0,0-3.2,7.84-9.59,11.14c0,0,3.4-4.95,3.92-9.28
				C325.3,168.06,315.4,181.77,300.55,183.63z"/>
			<path class="st3" d="M301.69,191.23L301.69,191.23c0,0-1.86-1.69-4.65-0.72c-2.78,0.97-0.4,13.47,7.64,13.1c0,0,0,0,0,0
				C303.39,199.95,302.39,195.19,301.69,191.23z"/>
			<path class="st3" d="M342.74,190.5c-1.86-0.65-3.31-0.11-4.06,0.32c-0.63,3.42-1.76,8.37-3.61,12.77c0.01,0,0.03,0,0.04,0
				C343.14,203.98,345.52,191.47,342.74,190.5z"/>
			<path class="st12" d="M328.08,192.58c0.07,1.42,0.81,2.54,1.66,2.5c0.85-0.04,1.48-1.23,1.41-2.65s-0.81-2.54-1.66-2.5
				C328.64,189.97,328.01,191.15,328.08,192.58z"/>
			<path class="st12" d="M309.93,193.45c0.07,1.42,0.81,2.54,1.66,2.5c0.85-0.04,1.48-1.23,1.41-2.65c-0.07-1.42-0.81-2.54-1.66-2.5
				C310.49,190.84,309.86,192.03,309.93,193.45z"/>
			<path class="st13" d="M320.82,188.49c-0.37,0.2-1.75,7.12-2.36,8.96c-0.62,1.84,1.35,3.68,2.7,3.73"/>
			<path class="st13" d="M326.98,204.11c-0.24,0.16-1.67,4.13-7.21,3.54"/>
			<path class="st32" d="M332.72,185.25c0,0-1.17-3.15-4.81-2.77"/>
			<path class="st32" d="M312.02,183.23c-0.35,0.27-3.57,0.58-4.31,3.35"/>
			<path class="st3" d="M325.45,213.88h-0.04c-3.57,1.25-7.39,1.18-10.8,0h-0.01c0,0,0.47,10.64,0,12.65
				c-0.47,2.01-3.56,3.87-3.56,3.87s2.77,12.05,8.91,11.39c6.14-0.66,8.48-6.63,9.07-13.55l-2.71-1.71L325.45,213.88z"/>
			<g>
				<path class="st33" d="M317.42,323.63c-14.85,0.62-18.56-2.06-18.56-2.06s-5.78,10.31-1.86,79h63.33c0,0,2.48-35.89-10.73-83.95
					C349.6,316.61,332.27,323.01,317.42,323.63z"/>
				<g>
					<path class="st34" d="M343.8,318.53c0.49,2,1.03,3.97,1.58,5.93c0.57,1.96,1.17,3.9,1.91,5.78c0.72,1.89,1.58,3.72,2.71,5.36
						c0.57,0.81,1.24,1.56,2.04,2.14c0.79,0.6,1.75,0.96,2.79,1c-1.02,0.18-2.11-0.09-3.05-0.59c-0.93-0.52-1.73-1.26-2.39-2.08
						c-1.33-1.65-2.26-3.55-3.02-5.48c-0.74-1.94-1.31-3.94-1.73-5.96C344.2,322.63,343.91,320.58,343.8,318.53z"/>
				</g>
				<g>
					<path class="st34" d="M301.93,322.68c0.44,3.92,0.33,7.9-0.25,11.82c-0.32,1.96-0.75,3.92-1.56,5.77
						c-0.4,0.92-0.9,1.82-1.58,2.58c-0.69,0.74-1.62,1.35-2.62,1.37c0.97-0.25,1.72-0.89,2.24-1.68c0.54-0.77,0.92-1.66,1.24-2.56
						c0.62-1.81,1-3.72,1.3-5.64c0.31-1.92,0.52-3.86,0.71-5.8L301.93,322.68z"/>
				</g>
				<g>
					<path class="st34" d="M317.42,323.63c0.6,1.81,0.89,3.66,1.12,5.51c0.19,1.86,0.31,3.72,0.12,5.62
						c-0.6-1.81-0.89-3.66-1.12-5.51C317.36,327.39,317.24,325.53,317.42,323.63z"/>
				</g>
				<g>
					<path class="st34" d="M318.66,343.22c0.29-0.11,0.63-0.07,0.92,0.05l0.43,0.2c0.13,0.09,0.25,0.2,0.37,0.3l0.37,0.31l0.3,0.37
						c0.19,0.25,0.42,0.48,0.58,0.75c0.31,0.55,0.67,1.07,0.95,1.64l0.79,1.72c0.44,1.18,0.88,2.36,1.24,3.57
						c0.33,1.21,0.71,2.41,1.01,3.63c0.29,1.22,0.57,2.45,0.83,3.68c0.26,1.23,0.45,2.47,0.68,3.7c0.47,2.47,0.78,4.96,1.15,7.44
						c0.36,2.48,0.54,4.98,0.82,7.48c0.28,2.49,0.46,4.99,0.63,7.49c0.4,4.99,0.54,10.01,0.69,15.01c-0.28-2.49-0.49-4.98-0.74-7.47
						c-0.2-2.49-0.45-4.98-0.72-7.47c-0.48-4.98-1-9.95-1.67-14.9c-0.33-2.47-0.61-4.96-1.05-7.41c-0.21-1.23-0.39-2.47-0.63-3.69
						c-0.26-1.22-0.49-2.44-0.73-3.67c-0.25-1.22-0.58-2.42-0.87-3.63c-0.31-1.2-0.71-2.38-1.09-3.57l-0.68-1.73
						c-0.24-0.57-0.56-1.1-0.83-1.66c-0.15-0.27-0.35-0.51-0.52-0.76l-0.27-0.38l-0.33-0.32c-0.11-0.1-0.22-0.22-0.34-0.32
						l-0.4-0.23C319.29,343.21,318.96,343.14,318.66,343.22z"/>
				</g>
			</g>
			<g>
				<path class="st35" d="M340.73,231.26c-9.49-2.11-11.72-3.03-11.72-3.03c-0.59,6.92-2.92,12.88-9.07,13.55
					c-6.14,0.66-8.91-11.39-8.91-11.39s-4.11,0.91-14.23,5.41c-10.04,4.47-16.78,15.64-16.78,15.64s4.5,7.47,9.66,12.01l6.26-6.67
					c0,0-0.88,6.98,2.72,14.86c3.61,7.88,4.02,10.46,3.51,17.12c-0.52,6.67-3.09,19.8-3.3,32.8c0,0,3.71,2.68,18.56,2.06
					c14.85-0.62,32.18-7.01,32.18-7.01s-2.68-17.31-4.33-23.92c-1.65-6.61-4.54-12.53-2.68-20.19c1.86-7.66,3.09-13.2,3.3-18.99
					l6.81,4.97c0,0,6.39-2.27,8.66-11.98C361.36,246.49,350.22,233.36,340.73,231.26z"/>
				<g>
					<path class="st36" d="M308.53,230.48c1.22,3.15,2.2,6.48,4.19,9.18c0.98,1.34,2.14,2.55,3.56,3.34c0.7,0.4,1.45,0.7,2.24,0.89
						c0.39,0.1,0.8,0.11,1.19,0.17c0.4,0.08,0.8,0.04,1.19,0.01c1.59-0.09,3.12-0.74,4.39-1.75c1.28-1,2.33-2.32,3.18-3.74
						c0.85-1.44,1.5-2.99,1.99-4.6c0.51-1.61,0.82-3.28,0.92-4.98c0.2,3.42-0.65,6.88-2.24,9.97c-0.8,1.55-1.89,2.96-3.26,4.1
						c-1.37,1.13-3.1,1.9-4.91,2.01c-0.45,0.03-0.91,0.06-1.35-0.02c-0.44-0.07-0.9-0.09-1.33-0.2c-0.87-0.22-1.72-0.55-2.48-1.02
						c-1.54-0.93-2.78-2.25-3.71-3.72c-0.94-1.47-1.65-3.06-2.21-4.68c-0.27-0.82-0.5-1.64-0.71-2.47l-0.3-1.25
						C308.76,231.29,308.74,230.83,308.53,230.48z"/>
				</g>
				<g>
					<path class="st36" d="M282.55,248.37c1.52,2.3,2.98,4.57,4.56,6.77c0.77,1.11,1.6,2.18,2.43,3.24
						c0.84,1.06,1.72,2.09,2.62,3.15c-1.15-0.76-2.24-1.63-3.2-2.63c-0.97-0.99-1.86-2.05-2.66-3.18
						C284.71,253.46,283.36,251.02,282.55,248.37z"/>
				</g>
				<g>
					<path class="st36" d="M351.22,257.4c1.01-0.85,1.88-1.81,2.71-2.78c0.82-0.99,1.59-2.01,2.27-3.09
						c0.67-1.08,1.32-2.19,1.86-3.36c0.57-1.16,1.06-2.35,1.59-3.57c-0.07,0.65-0.18,1.31-0.31,1.96c-0.17,0.64-0.31,1.29-0.56,1.91
						c-0.42,1.27-1.05,2.45-1.74,3.59c-0.73,1.12-1.57,2.17-2.55,3.09C353.53,256.07,352.44,256.87,351.22,257.4z"/>
				</g>
				<g>
					<path class="st36" d="M311.03,277.83c3.22-0.78,6.59-0.84,9.89-0.49c1.65,0.18,3.29,0.48,4.89,0.94
						c1.61,0.42,3.15,1.08,4.62,1.82c-1.61-0.38-3.19-0.78-4.8-1.06c-1.6-0.3-3.2-0.55-4.82-0.71c-1.61-0.19-3.23-0.31-4.86-0.39
						C314.31,277.88,312.68,277.82,311.03,277.83z"/>
				</g>
				<g>
					<path class="st36" d="M295.93,256.78c-0.18-0.71-0.18-1.43-0.12-2.14c0.05-0.71,0.2-1.41,0.38-2.09
						c0.39-1.36,0.95-2.67,1.85-3.8c-0.07,0.72-0.22,1.4-0.38,2.08c-0.15,0.67-0.34,1.33-0.51,1.99
						C296.78,254.14,296.4,255.43,295.93,256.78z"/>
				</g>
			</g>
			<path class="st17" d="M325.73,218.06l-0.28-4.18h-0.04c-3.57,1.25-7.39,1.18-10.8,0h-0.01c0,0,0.09,2.03,0.15,4.49
				C317.12,218.72,320.96,218.94,325.73,218.06z"/>
		</g>
		<g>
			<path class="st10" d="M381.57,198.05c0,0-4.41-0.36-10.11,3.13c-8.98,5.49-16.64,19.93-16.64,19.93s1.79,12.8,12.51,15.68
				c0,0-5.7,34.03,0.86,61.88c0,0,23.89,10.52,61.85,2.06c6.6-1.65,6.6-6.39,11.14-9.08c0,0-1.03-5.16-2.06-15.68
				c-1.03-10.52-1.03-31.37-1.03-31.37s-0.21-15.66,1.86-23.5c2.06-7.84-3.4-20.83-17.69-21.56
				C407.98,198.83,381.57,198.05,381.57,198.05z"/>
			<path class="st2" d="M391.16,139.22c0,0-16.4,38.53,8.35,46.03c24.75,7.5,29.08-14.16,34.03-26.54
				c4.95-12.38,3.4-30.01-10.21-34.96C409.73,118.8,395.59,123.88,391.16,139.22z"/>
			<path class="st2" d="M437.89,160.37c-1.85-1.29-3.99-0.67-4.85-0.34c-1.59,4.19-3.2,9.2-5.53,13.75
				c0.36,0.57,0.98,0.96,1.95,1.09C436.26,175.78,441.18,162.67,437.89,160.37z"/>
			<path class="st2" d="M388.13,148.35c0,0-2.08-2.47-4.9-1.85c-3.92,0.87-4.38,14.86,2.25,16.63c0.13,0.04,0.25,0.05,0.38,0.07
				C385.93,157.92,386.98,152.62,388.13,148.35z"/>
			<path class="st12" d="M417.21,162.51c-0.57,1.62-0.25,3.21,0.72,3.55c0.97,0.34,2.22-0.69,2.79-2.31
				c0.57-1.62,0.25-3.21-0.72-3.55C419.03,159.86,417.78,160.89,417.21,162.51z"/>
			<path class="st12" d="M396.5,155.2c-0.57,1.62-0.25,3.21,0.72,3.55c0.97,0.34,2.22-0.69,2.79-2.31c0.57-1.62,0.25-3.21-0.72-3.55
				C398.32,152.54,397.08,153.58,396.5,155.2z"/>
			<path class="st27" d="M410.95,154.63c-0.51,0.06-5.21,7.17-6.74,8.95c-1.53,1.78-0.17,4.73,1.32,5.4"/>
			<path class="st27" d="M410.71,174.93c-0.34,0.07-3.76,3.86-9.68,0.67"/>
			<path class="st20" d="M425.75,156.44c0,0,0.13-4.05-4.12-5.3"/>
			<path class="st20" d="M403.52,144.73c-0.52,0.14-4.26-0.99-6.36,1.78"/>
			<path class="st2" d="M410.99,186.69l-0.02-0.01c-3.25,0.31-7.02-0.09-11.45-1.43c-1.84-0.56-3.44-1.29-4.85-2.16l0,0v9.47
				l-4.12,2.2c0,0,1.5,8.35,7.71,13.92c0,0,10.53-2.41,15.5-13.46l-3.04-2.01L410.99,186.69z"/>
			<path class="st35" d="M394.67,192.56c0,0-8.38-2.36-13.09,5.49c0,0,0.1,5.68,6.39,13.11c0,0,1.19-6.74,5.36-8.86
				C393.33,202.29,391.67,197.29,394.67,192.56z"/>
			<path class="st35" d="M410.71,193.21c0,0,2.73-1.76,4.74-0.65c2.01,1.11,4.8,2.04,6.81,6.99c0,0-4.18,13.64-12.53,15.25
				c0,0,2.04-4.94-3.86-9.87c0,0,4.47-2.6,7.88-9.72L410.71,193.21z"/>
			<g>
				<path class="st37" d="M398.26,208.68c-0.2,2.11-0.39,4.15-0.54,6.2l-0.21,3.09c-0.07,1.04-0.12,2.07-0.25,3.13
					c-0.56-2.05-0.67-4.19-0.53-6.3c0.09-1.05,0.23-2.11,0.48-3.14C397.44,210.65,397.76,209.63,398.26,208.68z"/>
			</g>
			<g>
				<path class="st35" d="M356.43,218.96c0.8,1.26,1.65,2.46,2.5,3.65c0.87,1.17,1.77,2.32,2.74,3.4c0.97,1.07,2.02,2.06,3.14,2.98
					c1.15,0.87,2.38,1.64,3.73,2.28c-1.47-0.26-2.9-0.83-4.18-1.64c-1.27-0.83-2.41-1.84-3.43-2.95
					C358.94,224.41,357.35,221.8,356.43,218.96z"/>
			</g>
			<path class="st10" d="M428.05,200.64c0.33,0.11,9.43,0.07,14.38,7.08c4.95,7,9.69,17.4,9.69,17.4s-9.9,6.52-19.6,9.2
				c0,0-5.76-9.91-8.87-17.95C418.91,204.11,428.05,200.64,428.05,200.64z"/>
			<g>
				<path class="st35" d="M430.81,231.26c1.72-0.67,3.4-1.37,5.09-2.07c1.68-0.71,3.34-1.45,4.98-2.23
					c1.65-0.76,3.27-1.59,4.87-2.45c1.61-0.85,3.18-1.78,4.77-2.71c-1.36,1.23-2.81,2.4-4.38,3.38c-1.55,1.01-3.17,1.89-4.84,2.68
					C437.96,229.41,434.46,230.66,430.81,231.26z"/>
			</g>
			<path class="st5" d="M450.82,304.17c-0.35-6.74-9.63-12.52-9.63-12.52c-4.54,2.68-4.54,7.43-11.14,9.08
				c-37.95,8.46-61.85-2.06-61.85-2.06s-1.69,27.94-0.86,44.5c0.83,16.56-0.23,57.4-0.23,57.4h36.37c0,0,1.24-19.6,2.89-30.12
				l8.04,30.12h33.78c0,0,0.41-36.1,1.44-49.92C450.67,336.83,451.16,310.91,450.82,304.17z"/>
			<g>
				<path class="st6" d="M388.38,303.2c0.13,1.27,0.22,2.54,0.34,3.81l0.28,3.81l0.56,7.6c0.21,2.52,0.38,5.07,0.91,7.5
					c0.29,1.21,0.7,2.4,1.3,3.49c0.58,1.1,1.34,2.14,2.39,2.87c-1.18-0.54-2.07-1.56-2.81-2.62c-0.71-1.09-1.22-2.3-1.62-3.54
					c-0.74-2.52-0.93-5.08-1.17-7.62c-0.19-2.55-0.31-5.1-0.33-7.65C388.2,308.31,388.22,305.76,388.38,303.2z"/>
			</g>
			<path class="st2" d="M432.52,234.31c0,0,9.69,20.21,16.71,26.4c0,0-2.27,9.01-3.3,18.12c-1.03,9.11-7.63,20.66-7.63,20.66
				s3.71,7.63,9.49,10.11c0,0,4.95-8.25,13.2-25.78c8.25-17.53,8.87-24.55,7.63-29.29c-1.24-4.74-16.5-29.42-16.5-29.42
				S444.28,229.98,432.52,234.31z"/>
			<g>
				<path class="st6" d="M371.79,299.95c0.32,2.76,0.44,5.53,0.48,8.3c0.05,2.77-0.06,5.55-0.27,8.32c-0.25,2.77-0.6,5.54-1.27,8.25
					c-0.35,1.35-0.75,2.7-1.3,3.99c-0.58,1.27-1.27,2.54-2.31,3.47c0.87-1.08,1.44-2.34,1.85-3.64c0.44-1.29,0.76-2.63,1.01-3.98
					c0.48-2.7,0.81-5.43,1.03-8.17c0.24-2.74,0.37-5.5,0.5-8.25c0.07-1.38,0.11-2.76,0.15-4.14L371.79,299.95z"/>
			</g>
			<g>
				<path class="st6" d="M438.3,299.49c-0.62-0.18-1.01-0.54-1.33-0.94c-0.3-0.42-0.54-0.89-0.53-1.54
					c0.63,0.17,1.01,0.53,1.33,0.94C438.06,298.38,438.3,298.84,438.3,299.49z"/>
			</g>
			<g>
				<path class="st6" d="M444.28,400.56c-1.04-7.53-1.26-15.16-1.07-22.77c0.08-3.8,0.39-7.61,0.72-11.39
					c0.35-3.78,0.61-7.56,0.87-11.35c0.54-7.57,1.02-15.15,1.47-22.73l1.45-22.74l0.01-0.11l0.09,0.06l2.03,1.29l-2.09-1.18
					l0.09-0.05c-0.15,7.6-0.44,15.19-0.76,22.78c-0.36,7.59-0.78,15.17-1.29,22.75c-0.29,3.79-0.58,7.58-0.96,11.36
					c-0.37,3.78-0.67,7.55-0.87,11.33c-0.19,3.78-0.26,7.58-0.2,11.37C443.79,392.99,443.95,396.78,444.28,400.56z"/>
			</g>
			<g>
				<path class="st6" d="M406.37,370.45l-1.61-6.7c-0.55-2.23-1.07-4.45-1.65-6.66c-0.56-2.22-1.17-4.42-1.84-6.6
					c-0.31-1.1-0.7-2.17-1.09-3.25c-0.2-0.53-0.38-1.08-0.6-1.61c-0.23-0.52-0.46-1.05-0.68-1.58c1.32,1.9,2.25,4.04,3.09,6.19
					c0.85,2.15,1.49,4.37,2.08,6.6c0.57,2.23,1.07,4.49,1.44,6.76C405.89,365.87,406.22,368.15,406.37,370.45z"/>
			</g>
			<g>
				<path class="st37" d="M430.81,269.97c-0.94,3.35-2.6,6.47-4.62,9.31c-1.02,1.42-2.15,2.76-3.4,3.98
					c-1.22,1.25-2.64,2.3-4.09,3.24c1.21-1.25,2.42-2.46,3.52-3.77c1.11-1.3,2.18-2.63,3.16-4.03c1-1.38,1.94-2.81,2.85-4.26
					C429.12,272.98,429.99,271.5,430.81,269.97z"/>
			</g>
			<g>
				<path class="st37" d="M434.48,278.83c-1.34,1.62-2.89,2.99-4.49,4.3c-0.81,0.64-1.64,1.26-2.5,1.84
					c-0.86,0.57-1.76,1.12-2.73,1.53c1.47-1.49,3-2.85,4.61-4.15C430.99,281.07,432.64,279.84,434.48,278.83z"/>
			</g>
			<path class="st6" d="M396.27,309.15c0,1.76-0.69,3.18-1.55,3.18s-1.55-1.42-1.55-3.18c0-1.76,0.69-3.18,1.55-3.18
				S396.27,307.4,396.27,309.15z"/>
			<g>
				<path class="st37" d="M367.34,236.79c0.34-3.25,0.97-6.43,1.68-9.6c0.74-3.16,1.55-6.31,2.65-9.38
					c-0.34,3.26-0.97,6.44-1.68,9.6C369.26,230.57,368.45,233.71,367.34,236.79z"/>
			</g>
			<g>
				<path class="st37" d="M432.52,234.31c-1.44-1.9-2.6-3.95-3.71-6.02c-1.07-2.09-2.08-4.22-2.82-6.49
					c1.44,1.9,2.61,3.95,3.71,6.02C430.77,229.92,431.78,232.04,432.52,234.31z"/>
			</g>
			<path class="st31" d="M410.82,190.73l0.17-4.05l-0.02-0.01c-3.25,0.31-7.02-0.09-11.45-1.43c-1.84-0.56-3.44-1.29-4.85-2.16l0,0
				v6.21C398.68,189.85,404.59,190.52,410.82,190.73z"/>
		</g>
	</g>
</g>
<g id="DESIGNED_BY_FEREPIK">
</g>
</svg>
